<?xml version="1.0" encoding="utf-8" ?>
<svg xmlns="http://www.w3.org/2000/svg" xmlns:xlink="http://www.w3.org/1999/xlink" width="1024" height="1024">
	<path fill="#2098A6" d="M0 0L1024 0L1024 0.579674L1024 1024L841.991 1024L836.586 1024L759.48 1024L702.772 1024L616.647 1024L614.545 1024L451 1024L386.326 1024L385.152 1024L378.98 1024L377.248 1024L304.314 1024L303.956 1024L279.517 1024L183.994 1024L180.751 1024L0 1024L0 0.900599L0 0Z"/>
	<path fill="#65D0D2" d="M54.7768 299.706C55.8691 300.045 56.3672 300.401 57.1851 301.195C57.4206 302.597 57.2174 302.962 56.7209 304.319C55.3121 303.903 55.0238 303.828 54.0232 302.775C53.8388 301.465 54.2255 300.856 54.7768 299.706Z"/>
	<path fill="#F36337" d="M143.419 62.506C144.79 62.618 146.23 63.0666 147.496 63.5908C150.605 64.8772 153.325 67.3458 154.449 70.5682Q154.608 71.0224 154.719 71.4906Q154.831 71.9588 154.893 72.436Q154.956 72.9132 154.969 73.3943Q154.982 73.8754 154.945 74.3552Q154.908 74.8351 154.822 75.3086Q154.736 75.7821 154.602 76.2442Q154.468 76.7064 154.286 77.1522Q154.105 77.598 153.879 78.0228C152.198 81.1785 149.295 82.7474 146.032 83.8338C143.791 83.9297 141.857 83.904 139.786 82.941C137.268 81.7702 135.345 79.6824 134.491 77.0293Q134.32 76.4949 134.205 75.9458Q134.091 75.3967 134.032 74.8387Q133.974 74.2808 133.973 73.7198Q133.973 73.1588 134.029 72.6007Q134.086 72.0426 134.2 71.4932Q134.313 70.9438 134.482 70.4089Q134.651 69.874 134.874 69.3593Q135.097 68.8445 135.372 68.3553C137.226 64.9871 139.871 63.6127 143.419 62.506Z"/>
	<path fill="#F36337" d="M869.991 50.5931Q870.703 50.545 871.416 50.5544Q872.129 50.5639 872.84 50.6309Q873.55 50.6979 874.252 50.822Q874.955 50.9461 875.645 51.1266Q876.335 51.307 877.009 51.5425Q877.682 51.778 878.334 52.0672Q878.986 52.3563 879.613 52.6971Q880.24 53.0379 880.837 53.4282Q881.516 53.8689 882.147 54.375Q882.779 54.8811 883.357 55.4476Q883.935 56.0142 884.453 56.6355Q884.972 57.2568 885.426 57.9267Q885.88 58.5966 886.265 59.3084Q886.65 60.0203 886.962 60.7669Q887.275 61.5136 887.511 62.2876Q887.747 63.0617 887.905 63.8554C888.793 68.3449 887.979 73.4193 885.282 77.1728C882.297 81.3273 878.044 83.1248 873.129 83.8867C869.812 83.7683 866.711 83.2535 863.743 81.6863Q863.003 81.2992 862.306 80.8391Q861.609 80.379 860.962 79.8507Q860.316 79.3224 859.726 78.7312Q859.136 78.1401 858.609 77.4923Q858.082 76.8445 857.623 76.1466Q857.164 75.4488 856.779 74.708Q856.393 73.9673 856.084 73.1913Q855.776 72.4153 855.547 71.612Q855.319 70.8385 855.171 70.046Q855.023 69.2535 854.956 68.45Q854.889 67.6465 854.904 66.8404Q854.919 66.0343 855.015 65.2338Q855.111 64.4333 855.288 63.6467Q855.465 62.8601 855.721 62.0955Q855.977 61.3309 856.309 60.5961Q856.64 59.8613 857.045 59.1639C859.963 54.1527 864.612 51.9694 869.991 50.5931Z"/>
	<path fill="#65D0D2" d="M916.489 922.596C919.999 922.42 923.396 923.083 926.461 924.855Q926.841 925.079 927.208 925.322Q927.575 925.565 927.93 925.827Q928.284 926.089 928.625 926.368Q928.965 926.648 929.291 926.945Q929.617 927.242 929.926 927.555Q930.236 927.868 930.53 928.197Q930.823 928.526 931.099 928.869Q931.375 929.212 931.633 929.57Q931.891 929.927 932.13 930.297Q932.369 930.667 932.589 931.049Q932.809 931.431 933.009 931.823Q933.208 932.216 933.388 932.618Q933.567 933.021 933.725 933.432Q933.884 933.843 934.021 934.262Q934.158 934.681 934.273 935.106Q934.388 935.531 934.481 935.962Q934.654 936.75 934.748 937.55Q934.842 938.351 934.856 939.157Q934.87 939.963 934.803 940.767Q934.737 941.57 934.591 942.363Q934.445 943.156 934.221 943.931Q933.997 944.705 933.697 945.454Q933.398 946.202 933.025 946.917Q932.652 947.632 932.21 948.306C929.25 952.865 925.082 954.821 919.989 956.02C916.523 956.064 913.139 955.449 910.076 953.771Q909.687 953.56 909.31 953.328Q908.933 953.097 908.568 952.846Q908.203 952.596 907.852 952.326Q907.501 952.057 907.164 951.77Q906.827 951.483 906.506 951.179Q906.185 950.875 905.879 950.554Q905.574 950.234 905.286 949.898Q904.998 949.562 904.727 949.211Q904.457 948.861 904.205 948.497Q903.954 948.133 903.721 947.757Q903.489 947.38 903.276 946.992Q903.063 946.604 902.871 946.205Q902.679 945.807 902.507 945.399Q902.336 944.991 902.186 944.574Q902.036 944.158 901.908 943.734Q901.78 943.311 901.674 942.881Q901.483 942.091 901.371 941.286Q901.26 940.481 901.229 939.668Q901.199 938.856 901.25 938.045Q901.3 937.234 901.432 936.432Q901.563 935.629 901.774 934.844Q901.984 934.059 902.272 933.299Q902.56 932.539 902.923 931.811Q903.285 931.084 903.718 930.396C906.725 925.667 911.246 923.726 916.489 922.596Z"/>
	<path fill="#65D0D2" d="M116.464 216.66C120.287 216.408 124.306 217.203 127.584 219.239Q127.948 219.465 128.3 219.71Q128.652 219.955 128.99 220.218Q129.329 220.481 129.653 220.761Q129.978 221.041 130.287 221.338Q130.597 221.634 130.891 221.946Q131.184 222.258 131.462 222.585Q131.739 222.912 131.999 223.253Q132.259 223.594 132.5 223.948Q132.742 224.302 132.966 224.668Q133.189 225.034 133.393 225.411Q133.597 225.788 133.781 226.175Q133.965 226.562 134.129 226.958Q134.292 227.354 134.436 227.758Q134.579 228.162 134.7 228.573Q134.822 228.984 134.923 229.401Q135.023 229.818 135.102 230.239C136.066 235.205 134.842 240.812 131.854 244.897C128.695 249.217 124.45 250.926 119.322 251.723C115.154 251.66 111.474 251.006 107.9 248.74Q107.518 248.501 107.148 248.244Q106.778 247.986 106.422 247.709Q106.066 247.433 105.725 247.139Q105.384 246.844 105.058 246.533Q104.732 246.222 104.422 245.894Q104.113 245.566 103.821 245.223Q103.528 244.88 103.254 244.523Q102.98 244.165 102.724 243.794Q102.468 243.423 102.232 243.039Q101.996 242.655 101.779 242.26Q101.563 241.865 101.367 241.459Q101.171 241.053 100.997 240.637Q100.822 240.222 100.669 239.798Q100.515 239.374 100.384 238.943Q100.253 238.512 100.143 238.075Q100.034 237.637 99.9477 237.195C99.0803 232.519 100.348 227.505 103.163 223.693C106.564 219.087 111.035 217.438 116.464 216.66Z"/>
	<path fill="#FBF6DF" d="M48.4207 401.802L49.9809 402.576L90.4182 413.156C98.7577 415.404 107.472 417.431 115.484 420.658C109.693 428.339 104.259 436.781 101.235 445.977C97.7709 455.204 94.3802 464.385 92.117 473.998L91.7765 476.571L91.758 477.155C91.492 483.95 90.3665 490.763 89.7281 497.539C88.193 513.83 88.1443 532.749 93.2096 548.353C100.569 547.786 107.897 546.898 115.254 546.342C120.677 545.932 142.044 545.558 145.378 544.183C149.749 544.049 153.995 543.944 158.353 544.442L158.626 544.78C154.075 545.58 149.471 545.624 144.867 545.874C143.408 548.79 141.237 551.679 140.01 554.617C146.35 552.758 152.274 549.631 158.839 548.651C158.216 549.795 151.204 552.005 149.479 552.667C146.382 553.833 143.458 555.133 140.505 556.627L142.426 556.962C142.143 559.63 137.087 563.092 135.528 565.865C138.882 564.342 142.403 562.51 145.333 560.273C148.622 558.795 152.21 557.803 155.426 556.212C155.545 556.154 155.66 556.088 155.777 556.026L156.481 556.748L157.053 556.06C156.02 556.828 154.953 557.544 153.886 558.264C152.65 561.35 145.334 566.919 142.677 569.888C135.806 577.564 129.85 585.769 124.117 594.313L121.526 594.118C137.786 612.038 161.25 622.402 184.56 627.512C188.615 628.401 197.084 628.975 200.388 630.861C196.241 630.683 192.138 630.234 188.014 629.786C189.02 636.003 189.857 642.322 191.173 648.478C192.673 658.64 194.774 669.165 197.455 679.085C199.179 677.71 198.81 676.424 201.418 676.634C200.873 679.112 196.553 685.319 195.205 688.043C190.922 696.704 186.614 706.317 183.417 715.434C179.817 725.705 175.838 736.594 173.152 747.11C171.474 753.675 169.382 771.972 166.74 776.849C165.865 783.298 165.907 789.794 165.896 796.292C166.256 805.082 167.15 814.698 170.555 822.911C171.4 824.95 174.63 829.804 173.877 831.813C164.747 816.888 162.964 802.781 164.089 785.547Q164.26 778.591 165.467 771.738C166.445 748.323 183.054 703.487 195.155 683.403C194.183 675.031 192.176 666.933 190.603 658.672C188.77 649.041 187.265 639.305 185.81 629.611C156.893 624.965 128.37 610.634 109.992 587.451C109.696 587.283 109.151 587.24 108.812 587.172C105.596 588.749 102.735 591.165 99.7898 593.206C79.2054 607.469 60.6254 626.166 46.0597 646.531C41.2117 653.31 37.6764 661.155 32.5981 667.669C32.4885 667.809 32.3754 667.947 32.264 668.086C46.6783 632.089 75.6993 605.148 107.712 584.71Q103.264 578.58 99.1853 572.198C70.3875 584.904 41.9609 597.596 18.1996 618.691C22.0773 613.011 27.516 608.652 32.9163 604.488C52.876 589.094 74.591 579.643 97.6815 569.993C94.6228 563.902 92.2025 557.496 90.0085 551.051C78.2048 552.718 66.3496 554.872 54.8745 558.145C48.3965 559.993 42.0752 562.36 35.6179 564.287C48.0989 556.493 74.6767 550.984 89.3365 548.709C84.0651 523.739 85.478 504.467 89.0675 479.804C71.3413 464.229 61.7865 442.027 54.0489 420.303C51.9463 414.399 49.3353 408.014 48.4207 401.802Z"/>
	<path fill="#2098A6" d="M153.886 558.264C152.65 561.35 145.334 566.919 142.677 569.888C135.806 577.564 129.85 585.769 124.117 594.313L121.526 594.118L112.678 584.338C125.686 574.299 139.256 565.742 153.886 558.264Z"/>
	<path fill="#2098A6" d="M140.505 556.627L142.426 556.962C142.143 559.63 137.087 563.092 135.528 565.865C132.701 568.106 129.32 569.931 126.286 571.898Q118.502 577.007 110.82 582.268C107.661 578.725 104.829 574.987 102.184 571.049C114.773 565.712 127.664 561.298 140.505 556.627Z"/>
	<path fill="#2098A6" d="M93.8436 550.1C99.62 549.919 105.481 548.999 111.239 548.425C122.383 547.314 133.675 546.305 144.867 545.874C143.408 548.79 141.237 551.679 140.01 554.617C127 559.462 113.818 563.849 100.806 568.711C97.7152 562.838 95.8876 556.389 93.8436 550.1Z"/>
	<path fill="#F36337" d="M49.9809 402.576L90.4182 413.156C98.7577 415.404 107.472 417.431 115.484 420.658C109.693 428.339 104.259 436.781 101.235 445.977C97.7709 455.204 94.3802 464.385 92.117 473.998L91.7765 476.571C91.6787 476.543 91.5779 476.525 91.4831 476.488C89.2092 475.601 86.3697 471.088 84.8234 468.997C69.721 448.579 59.4542 426.041 49.9809 402.576Z"/>
	<path fill="#F36337" d="M885.951 429.338C895.239 435.519 906.808 449.463 913.808 458.429C946.546 500.363 969.707 547.661 980.177 600.056Q980.967 604.195 981.656 608.352Q982.344 612.509 982.93 616.681Q983.515 620.854 983.998 625.04Q984.481 629.226 984.861 633.422Q985.24 637.619 985.516 641.823Q985.793 646.028 985.965 650.238Q986.138 654.448 986.206 658.661Q986.275 662.874 986.24 667.087Q986.205 671.3 986.067 675.512Q985.928 679.723 985.686 683.93Q985.444 688.136 985.098 692.336Q984.752 696.535 984.303 700.724Q983.854 704.914 983.302 709.091Q982.75 713.269 982.095 717.431Q981.44 721.593 980.683 725.738Q979.926 729.883 979.067 734.008Q978.208 738.134 977.248 742.236Q976.288 746.339 975.227 750.417Q974.166 754.495 973.005 758.545Q971.844 762.596 970.583 766.616Q969.323 770.637 967.964 774.625Q966.605 778.614 965.148 782.567Q963.691 786.521 962.138 790.438Q960.584 794.354 958.934 798.231Q957.285 802.109 955.54 805.944Q953.795 809.779 951.957 813.571Q950.118 817.362 948.187 821.107Q946.256 824.852 944.233 828.548Q942.21 832.244 940.096 835.89Q937.983 839.535 935.781 843.127Q933.578 846.719 931.288 850.256Q928.998 853.793 926.621 857.272C909.233 883.236 893.916 902.429 870.146 922.899C872.165 910.183 875.462 897.493 877.787 884.787C885.121 844.709 891.823 803.991 894.087 763.282C894.553 754.903 896.009 743.794 893.458 735.799C893.169 730.078 893.612 724.261 893.335 718.498C892.13 693.38 888.628 666.562 879.161 643.136C890.134 577.876 888.671 511.662 867.81 448.465C872.263 442.362 880.496 435.054 885.951 429.338Z"/>
	<path fill="#F36337" d="M109.992 587.451C128.37 610.634 156.893 624.965 185.81 629.611C187.265 639.305 188.77 649.041 190.603 658.672C192.176 666.933 194.183 675.031 195.155 683.403C183.054 703.487 166.445 748.323 165.467 771.738Q164.26 778.591 164.089 785.547C162.964 802.781 164.747 816.888 173.877 831.813C179.152 840.433 186.648 847.453 194.48 853.73C233.684 880.404 262.346 895.451 308.567 907.841C332.513 914.26 345.158 917.443 370.599 915.846C365.908 921.713 353.394 938.247 350.832 944.46C370.789 958.332 389.594 974.001 408.555 989.184L408.559 989.469C400.45 1000.7 392.503 1012.26 385.152 1024L378.98 1024L377.248 1024L304.314 1024L303.956 1024L279.517 1024L183.994 1024L180.751 1024C182.654 1014.31 183.982 1004.5 185.595 994.756L193.078 951.167C186.971 946.503 181.394 940.12 175.898 934.723C143.454 902.867 117.341 866.343 101.783 823.301Q97.1495 810.793 93.4995 797.963Q89.8496 785.133 87.2051 772.059C77.3985 721.74 80.1931 665.825 97.1652 617.273C100.741 607.045 105.396 597.248 109.992 587.451Z"/>
	<path fill="#921C2D" d="M207.205 866.453C208.235 866.972 208.657 867.049 209.034 868.226C209.215 868.791 209.209 869.726 209.251 870.291L209.748 868.629C213.151 869.54 224.371 880.532 228.083 883.499Q235.819 889.674 244.201 894.941Q252.582 900.207 261.502 904.499C271.844 909.38 283.074 913.46 294.603 913.738C298.076 913.822 305.561 912.352 308.314 913.352C308.877 914.458 309.383 915.549 310.115 916.555C321.928 928.142 335.294 938.11 347.278 949.564C348.584 948 349.678 946.146 350.832 944.46C370.789 958.332 389.594 974.001 408.555 989.184L408.559 989.469C400.45 1000.7 392.503 1012.26 385.152 1024L378.98 1024L377.248 1024L304.314 1024L303.956 1024L279.517 1024L183.994 1024L180.751 1024C182.654 1014.31 183.982 1004.5 185.595 994.756L193.078 951.167C195.223 936.383 198.091 921.686 200.637 906.966Q204.05 886.73 207.205 866.453Z"/>
	<path fill="#FBF6DF" d="M207.205 866.453C208.235 866.972 208.657 867.049 209.034 868.226C209.215 868.791 209.209 869.726 209.251 870.291L207.632 879.962Q195.313 951.899 183.994 1024L180.751 1024C182.654 1014.31 183.982 1004.5 185.595 994.756L193.078 951.167C195.223 936.383 198.091 921.686 200.637 906.966Q204.05 886.73 207.205 866.453Z"/>
	<path fill="#05495D" d="M310.115 916.555C321.928 928.142 335.294 938.11 347.278 949.564C348.584 948 349.678 946.146 350.832 944.46C370.789 958.332 389.594 974.001 408.555 989.184L408.559 989.469C400.45 1000.7 392.503 1012.26 385.152 1024L378.98 1024L377.248 1024L304.314 1024L303.956 1024L303.933 1021.55C303.91 1012.45 309.145 918.947 310.115 916.555Z"/>
	<path fill="#2098A6" d="M350.832 944.46C370.789 958.332 389.594 974.001 408.555 989.184L408.559 989.469C400.45 1000.7 392.503 1012.26 385.152 1024L378.98 1024C373.155 1018.76 366.773 1014.03 360.746 1009.01C349.495 999.641 338.412 990.152 326.878 981.119Q336.61 965.039 347.278 949.564C348.584 948 349.678 946.146 350.832 944.46Z"/>
	<path fill="#2098A6" d="M442.242 534.474C454.724 544.97 466.836 556.141 477.746 568.279C485.416 576.811 492.406 585.947 500.109 594.45C508.083 591.128 516.555 588.637 524.769 585.957Q551.141 577.501 577.637 569.448C584.512 559.11 593.333 550.789 602.14 542.161C602.964 545.937 603.343 549.802 604.332 553.534C606.879 563.154 613.095 573.248 620.607 579.796Q627.134 585.104 633.951 590.034L635.679 592.378C643.877 605.433 652.328 618.089 662.673 629.572C664.701 631.864 666.962 633.953 669.153 636.088C676.035 631.575 683.899 628.275 690.942 623.881C706.841 613.963 737.336 590.505 749.811 576.774C753.599 572.605 756.631 567.986 759.527 563.173L759.666 562.754C795.241 567.843 843.213 588.194 865.043 617.071C871.013 624.97 875.045 634.187 879.161 643.136C888.628 666.562 892.13 693.38 893.335 718.498C893.612 724.261 893.169 730.078 893.458 735.799C896.009 743.794 894.553 754.903 894.087 763.282C891.823 803.991 885.121 844.709 877.787 884.787C875.462 897.493 872.165 910.183 870.146 922.899C867.353 933.317 865.347 943.943 862.577 954.371C856.344 977.838 849.159 1000.82 841.991 1024L836.586 1024L759.48 1024L702.772 1024L616.647 1024L614.545 1024L451 1024L386.326 1024L385.152 1024C392.503 1012.26 400.45 1000.7 408.559 989.469L408.555 989.184C389.594 974.001 370.789 958.332 350.832 944.46C353.394 938.247 365.908 921.713 370.599 915.846C345.158 917.443 332.513 914.26 308.567 907.841C262.346 895.451 233.684 880.404 194.48 853.73C186.648 847.453 179.152 840.433 173.877 831.813C174.63 829.804 171.4 824.95 170.555 822.911C167.15 814.698 166.256 805.082 165.896 796.292C165.907 789.794 165.865 783.298 166.74 776.849C169.382 771.972 171.474 753.675 173.152 747.11C175.838 736.594 179.817 725.705 183.417 715.434C186.614 706.317 190.922 696.704 195.205 688.043C196.553 685.319 200.873 679.112 201.418 676.634C202.386 676.734 203.319 676.861 204.292 676.81C207.987 676.269 212.478 677.107 216.297 677.059C271.454 676.356 332.397 652.348 376.27 619.61C389.766 609.539 401.883 597.996 413.586 585.93L413.601 585.685C413.751 585.55 413.907 585.421 414.051 585.281C421.828 577.698 441.929 545.488 442.242 534.474Z"/>
	<path fill="#3A5B7C" d="M325.062 728.753C327.148 719.139 338.613 709.879 346.442 704.874C363.257 694.125 383.427 691.668 402.718 696.067C407.914 697.252 412.906 699.497 417.968 701.154L417.537 701.488C391.74 696.905 366.319 697.507 343.99 712.959C336.84 717.907 331.622 723.559 326.943 730.83L325.062 728.753Z"/>
	<path fill="#05495D" d="M452.189 724.266C456.615 780.21 448.884 831.327 411.305 875.368C408.272 878.923 404.409 882.614 401.943 886.547C397.318 889.533 391.486 890.49 387.39 894.311C381.963 890.393 357.104 871.042 353.732 866.505C354.272 862.664 354.399 858.86 354.507 854.986C362.635 852.63 370.046 848.881 377.185 844.362C404.385 827.146 421.143 801.228 434.977 772.986C441.404 759.867 447.383 745.845 450.587 731.548C451.15 729.127 451.738 726.712 452.189 724.266Z"/>
	<path fill="#65D0D2" d="M401.943 886.547C403.605 886.524 404.919 886.683 406.433 887.405C417.504 892.684 430.949 903.182 441.273 910.427C447.016 914.456 453.575 918.378 458.82 923.01C447.685 936.267 437.082 950.286 426.947 964.321C421.147 972.354 415.316 982.076 408.555 989.184C389.594 974.001 370.789 958.332 350.832 944.46C353.394 938.247 365.908 921.713 370.599 915.846Q378.798 904.925 387.39 894.311C391.486 890.49 397.318 889.533 401.943 886.547Z"/>
	<path fill="#FCCF9D" d="M201.418 676.634C202.386 676.734 203.319 676.861 204.292 676.81C211.272 683.348 214.658 693.827 218.915 702.202Q223.411 711.016 228.695 719.382C244.602 744.575 271.106 772.191 296.257 788.098C300.034 790.487 306.312 794.689 310.924 794.731C311.723 794.112 311.791 794.04 312.116 793.085C311.929 791.084 312.711 789.044 313.239 787.129C305.65 765.118 296.873 750.769 302.391 726.394C302.525 724.659 302.765 723.097 303.231 721.419C303.79 718.673 304.122 714.956 306.733 713.337C307.854 712.641 309.276 712.744 310.455 713.207C315.092 715.025 321.444 724.809 325.062 728.753L326.943 730.83C329.441 733.777 332.012 736.643 334.837 739.284C340.474 744.554 349.197 750.156 352.829 756.893C354.007 759.078 354.293 762.064 354.467 764.523C355.277 775.987 354.611 787.927 354.6 799.45Q354.783 827.218 354.507 854.986C354.399 858.86 354.272 862.664 353.732 866.505C357.104 871.042 381.963 890.393 387.39 894.311Q378.798 904.925 370.599 915.846C345.158 917.443 332.513 914.26 308.567 907.841C262.346 895.451 233.684 880.404 194.48 853.73C186.648 847.453 179.152 840.433 173.877 831.813C174.63 829.804 171.4 824.95 170.555 822.911C167.15 814.698 166.256 805.082 165.896 796.292C165.907 789.794 165.865 783.298 166.74 776.849C169.382 771.972 171.474 753.675 173.152 747.11C175.838 736.594 179.817 725.705 183.417 715.434C186.614 706.317 190.922 696.704 195.205 688.043C196.553 685.319 200.873 679.112 201.418 676.634Z"/>
	<path fill="#F36337" d="M302.391 726.394C302.525 724.659 302.765 723.097 303.231 721.419C306.214 734.81 310.227 744.754 318.557 755.818C321.697 759.987 325.184 764.01 327.984 768.413L321.464 775.525C321.443 775.464 321.413 775.406 321.399 775.343C320.234 770.175 317.253 766.469 314.443 762.076C307.203 750.756 303.146 739.865 302.391 726.394Z"/>
	<path fill="#F36337" d="M225.648 847.807C214.38 842.113 203.325 836.065 193.673 827.816C180.754 816.775 171.015 801.546 169.627 784.335C170.969 788.143 172.312 791.873 174.068 795.513C187.259 813.77 204.788 825.703 219.35 841.909C221.564 843.656 223.607 845.854 225.648 847.807Z"/>
	<path fill="#05495D" d="M302.391 726.394C303.146 739.865 307.203 750.756 314.443 762.076C317.253 766.469 320.234 770.175 321.399 775.343C321.413 775.406 321.443 775.464 321.464 775.525C317.777 781 315.007 787.16 312.116 793.085C311.929 791.084 312.711 789.044 313.239 787.129C305.65 765.118 296.873 750.769 302.391 726.394Z"/>
	<path fill="#F36337" d="M179.784 765.048C178.961 763.144 178.473 761.036 178.16 758.986C177.65 755.646 177.035 741.202 178.816 738.773C178.941 743.98 179.553 748.764 180.493 753.885C181.725 757.442 183.066 760.796 184.742 764.167C193.385 777.532 203.634 788.585 214.455 800.152Q226.694 813.287 239.297 826.074C237.458 825.191 234.793 824.303 233.368 822.859C212.402 813.074 191.476 790.224 181.712 769.177C180.717 767.954 180.307 766.511 179.784 765.048Z"/>
	<path fill="#F36337" d="M194.235 696.588C194.858 699.741 195.31 702.946 195.89 706.111C202.187 732.242 217.067 756.5 235.025 776.237C241.184 783.007 248.215 789.23 253.993 796.306L255.212 797.519L255.173 798.173C254.87 798.158 254.427 798.151 254.111 798.094C252.079 797.729 249.848 796.55 247.957 795.727C235.736 790.409 226.329 781.366 218.199 770.958C202.614 751.004 191.024 722.248 194.235 696.588Z"/>
	<path fill="#05495D" d="M442.242 534.474C454.724 544.97 466.836 556.141 477.746 568.279C485.416 576.811 492.406 585.947 500.109 594.45C508.083 591.128 516.555 588.637 524.769 585.957Q551.141 577.501 577.637 569.448C584.512 559.11 593.333 550.789 602.14 542.161C602.964 545.937 603.343 549.802 604.332 553.534C606.879 563.154 613.095 573.248 620.607 579.796Q627.134 585.104 633.951 590.034L635.679 592.378C643.877 605.433 652.328 618.089 662.673 629.572C661.11 634.804 659.782 640.116 658.374 645.391L658.285 647.077C651.731 673.72 645.292 700.592 641.363 727.764C639.759 738.852 638.967 750.093 637.965 761.251C637.1 770.884 635.685 780.906 635.805 790.561C635.004 793.767 634.162 796.97 633.433 800.193C633.053 804.122 632.58 807.817 633.039 811.761C624.129 837.347 611.853 861.781 600.842 886.515C586.217 919.369 572.2 952.72 556.175 984.907L555.276 985.222C527.282 967.373 498.901 949.871 471.421 931.252C472.416 931.14 473.404 930.991 474.377 930.757C507.46 922.795 545.619 903.655 563.87 874.1C585.948 838.349 579.28 802.003 571.936 763.558C569.386 750.211 567.255 736.552 564.03 723.364C561.076 711.279 550.633 701.614 542.456 692.651C520.666 668.766 496.891 647.706 471.695 627.484C453.082 612.547 434.062 598.251 413.586 585.93L413.601 585.685C413.751 585.55 413.907 585.421 414.051 585.281C421.828 577.698 441.929 545.488 442.242 534.474Z"/>
	<path fill="#65D0D2" d="M602.14 542.161C602.964 545.937 603.343 549.802 604.332 553.534C606.879 563.154 613.095 573.248 620.607 579.796Q627.134 585.104 633.951 590.034L635.679 592.378C643.877 605.433 652.328 618.089 662.673 629.572C661.11 634.804 659.782 640.116 658.374 645.391L658.285 647.077C651.731 673.72 645.292 700.592 641.363 727.764C639.759 738.852 638.967 750.093 637.965 761.251C637.1 770.884 635.685 780.906 635.805 790.561C635.004 793.767 634.162 796.97 633.433 800.193C625.962 790.559 620.547 778.537 614.13 768.11C603.59 750.986 591.809 734.221 582.038 716.68C579.234 714.099 573.173 702.282 570.73 698.384C563.668 687.114 556.221 676.087 549.206 664.788C533.99 640.738 518.333 616.338 500.109 594.45C508.083 591.128 516.555 588.637 524.769 585.957Q551.141 577.501 577.637 569.448C584.512 559.11 593.333 550.789 602.14 542.161Z"/>
	<path fill="#170405" d="M622.419 659.581C623.473 659.575 624.45 659.623 625.484 659.848C627.387 660.264 628.925 661.307 629.876 663.038C630.971 665.03 630.922 667.255 630.17 669.352C629.047 672.485 626.891 673.906 623.959 675.188C622.932 675.181 621.926 675.106 620.935 674.817C619.137 674.291 617.602 672.876 616.838 671.178C615.914 669.126 616.008 666.777 616.866 664.718C618.022 661.942 619.727 660.708 622.419 659.581Z"/>
	<path fill="#0E0920" d="M612.605 725.487C613.735 725.583 614.905 725.738 615.985 726.098C617.808 726.704 619.513 728.134 620.364 729.858C621.273 731.697 621.228 733.805 620.476 735.691C619.307 738.619 617.067 739.804 614.327 741.03C613.303 741.028 612.337 740.902 611.355 740.608C609.497 740.053 607.793 738.708 606.895 736.977C605.91 735.077 605.985 732.817 606.72 730.847C607.795 727.96 609.944 726.737 612.605 725.487Z"/>
	<path fill="#F36337" d="M600.182 637.773C597.823 658.724 591.523 679.875 586.362 700.303C584.993 705.722 583.025 711.206 582.038 716.68C579.234 714.099 573.173 702.282 570.73 698.384C563.668 687.114 556.221 676.087 549.206 664.788C564.734 663.464 587.421 647.162 600.182 637.773Z"/>
	<path fill="#921C2D" d="M602.14 542.161C602.964 545.937 603.343 549.802 604.332 553.534C606.879 563.154 613.095 573.248 620.607 579.796Q627.134 585.104 633.951 590.034L635.679 592.378C643.877 605.433 652.328 618.089 662.673 629.572C661.11 634.804 659.782 640.116 658.374 645.391C647.492 636.602 638.064 619.322 632.934 606.389C622.924 617.135 612.259 628.108 600.636 637.116L600.182 637.773C587.421 647.162 564.734 663.464 549.206 664.788C533.99 640.738 518.333 616.338 500.109 594.45C508.083 591.128 516.555 588.637 524.769 585.957Q551.141 577.501 577.637 569.448C584.512 559.11 593.333 550.789 602.14 542.161Z"/>
	<path fill="#2098A6" d="M602.14 542.161C602.964 545.937 603.343 549.802 604.332 553.534C606.879 563.154 613.095 573.248 620.607 579.796Q627.134 585.104 633.951 590.034L635.679 592.378C643.877 605.433 652.328 618.089 662.673 629.572C661.11 634.804 659.782 640.116 658.374 645.391C647.492 636.602 638.064 619.322 632.934 606.389C622.924 617.135 612.259 628.108 600.636 637.116C601.551 630.151 604.206 623.152 604.724 616.256C595.59 622.303 586.37 628.694 576.273 633.048C573.43 629.405 571.359 625.233 569.897 620.859C564.172 603.735 569.813 584.96 577.637 569.448C584.512 559.11 593.333 550.789 602.14 542.161Z"/>
	<defs>
		<linearGradient id="gradient_0" gradientUnits="userSpaceOnUse" x1="749.14929" y1="1013.4968" x2="666.94873" y2="621.9433">
			<stop offset="0" stop-color="#C3311E"/>
			<stop offset="1" stop-color="#DD6246"/>
		</linearGradient>
	</defs>
	<path fill="url(#gradient_0)" d="M759.666 562.754C795.241 567.843 843.213 588.194 865.043 617.071C871.013 624.97 875.045 634.187 879.161 643.136C888.628 666.562 892.13 693.38 893.335 718.498C893.612 724.261 893.169 730.078 893.458 735.799C896.009 743.794 894.553 754.903 894.087 763.282C891.823 803.991 885.121 844.709 877.787 884.787C875.462 897.493 872.165 910.183 870.146 922.899C867.353 933.317 865.347 943.943 862.577 954.371C856.344 977.838 849.159 1000.82 841.991 1024L836.586 1024L759.48 1024L702.772 1024L616.647 1024L614.545 1024L451 1024L386.326 1024L385.152 1024C392.503 1012.26 400.45 1000.7 408.559 989.469L408.555 989.184C415.316 982.076 421.147 972.354 426.947 964.321C437.082 950.286 447.685 936.267 458.82 923.01Q465.002 927.312 471.421 931.252C498.901 949.871 527.282 967.373 555.276 985.222L556.175 984.907C572.2 952.72 586.217 919.369 600.842 886.515C611.853 861.781 624.129 837.347 633.039 811.761C632.58 807.817 633.053 804.122 633.433 800.193C634.162 796.97 635.004 793.767 635.805 790.561C635.685 780.906 637.1 770.884 637.965 761.251C638.967 750.093 639.759 738.852 641.363 727.764C645.292 700.592 651.731 673.72 658.285 647.077L658.374 645.391C659.782 640.116 661.11 634.804 662.673 629.572C664.701 631.864 666.962 633.953 669.153 636.088C676.035 631.575 683.899 628.275 690.942 623.881C706.841 613.963 737.336 590.505 749.811 576.774C753.599 572.605 756.631 567.986 759.527 563.173L759.666 562.754Z"/>
	<path fill="#921C2D" d="M458.82 923.01Q465.002 927.312 471.421 931.252C498.901 949.871 527.282 967.373 555.276 985.222L556.175 984.907C590.086 980.563 613.705 986.228 642.333 1004.78C621.014 997.438 592.307 990.284 569.593 991.024C586.613 999.684 603.368 1010.03 616.647 1024L614.545 1024L451 1024L386.326 1024L385.152 1024C392.503 1012.26 400.45 1000.7 408.559 989.469L408.555 989.184C415.316 982.076 421.147 972.354 426.947 964.321C437.082 950.286 447.685 936.267 458.82 923.01Z"/>
	<path fill="#F36337" d="M609.126 1023.16Q611.843 1023.53 614.545 1024L451 1024L386.326 1024C389.811 1022.68 441.467 1023.42 449.951 1023.45L450.996 1023.41C456.575 1023.1 462.367 1023.65 467.979 1023.7L502.04 1023.77L609.126 1023.16Z"/>
	<path fill="#921C2D" d="M759.666 562.754C795.241 567.843 843.213 588.194 865.043 617.071C871.013 624.97 875.045 634.187 879.161 643.136C888.628 666.562 892.13 693.38 893.335 718.498C893.612 724.261 893.169 730.078 893.458 735.799C896.009 743.794 894.553 754.903 894.087 763.282C891.823 803.991 885.121 844.709 877.787 884.787C875.462 897.493 872.165 910.183 870.146 922.899C867.353 933.317 865.347 943.943 862.577 954.371C856.344 977.838 849.159 1000.82 841.991 1024L836.586 1024L759.48 1024L702.772 1024Q766.191 910.766 822.787 793.971C833.387 772.272 842.737 750.012 852.534 727.945C855.922 720.312 859.572 709.177 864.154 702.597L864.46 703.445L864.789 703.865C865.067 703.473 865.184 703.364 865.327 702.837C866.509 698.492 865.735 691.511 865.4 686.968C863.618 662.794 858.801 646.101 845.037 625.796C835.139 611.195 819.519 600.443 802.077 597.257C782.182 593.622 759.619 601.362 743.613 612.996C737.785 617.232 732.651 622.601 726.736 626.618L725.899 627.177C717.503 636.029 709.438 644.82 702.648 654.996C691.386 671.875 684.149 690.153 676.207 708.66Q662.116 740.781 649.064 773.337Q644.629 784.211 640.328 795.139C638.149 800.667 636.087 806.652 633.039 811.761C632.58 807.817 633.053 804.122 633.433 800.193C634.162 796.97 635.004 793.767 635.805 790.561C635.685 780.906 637.1 770.884 637.965 761.251C638.967 750.093 639.759 738.852 641.363 727.764C645.292 700.592 651.731 673.72 658.285 647.077L658.374 645.391C659.782 640.116 661.11 634.804 662.673 629.572C664.701 631.864 666.962 633.953 669.153 636.088C676.035 631.575 683.899 628.275 690.942 623.881C706.841 613.963 737.336 590.505 749.811 576.774C753.599 572.605 756.631 567.986 759.527 563.173L759.666 562.754Z"/>
	<path fill="#FBF6DF" d="M893.458 735.799C896.009 743.794 894.553 754.903 894.087 763.282C891.823 803.991 885.121 844.709 877.787 884.787C875.462 897.493 872.165 910.183 870.146 922.899C867.353 933.317 865.347 943.943 862.577 954.371C856.344 977.838 849.159 1000.82 841.991 1024L836.586 1024C848.619 990.756 858.131 956.057 865.616 921.523C870.817 898.566 876.405 875.339 879.713 852.026C881.884 846.344 882.62 836.034 883.559 829.691C885.933 813.655 888.406 797.43 889.986 781.301C891.47 766.151 892.062 750.942 893.458 735.799Z"/>
	<path fill="#FBF6DF" d="M181.529 372.325C179.222 321.193 198.686 256.891 223.958 212.814Q228.514 204.785 233.448 196.983Q238.382 189.181 243.683 181.623Q248.985 174.065 254.641 166.77Q260.298 159.474 266.296 152.457Q268.423 150.037 270.594 147.657Q272.765 145.276 274.979 142.935Q277.193 140.594 279.449 138.294Q281.705 135.993 284.002 133.735Q286.299 131.476 288.637 129.259Q290.975 127.042 293.353 124.868Q295.731 122.694 298.148 120.563Q300.565 118.433 303.02 116.347Q305.476 114.26 307.968 112.219Q310.461 110.178 312.99 108.182Q315.52 106.186 318.085 104.237Q320.65 102.287 323.251 100.385Q325.851 98.4823 328.485 96.6273Q331.119 94.7723 333.787 92.9654Q336.454 91.1585 339.154 89.4004Q341.854 87.6423 344.586 85.9335Q347.317 84.2247 350.079 82.5658Q352.841 80.9069 355.633 79.2984Q358.425 77.6899 361.245 76.1324Q364.065 74.5748 366.914 73.0688Q369.762 71.5628 372.637 70.1087Q375.512 68.6546 378.413 67.253Q381.314 65.8514 384.24 64.5027Q387.167 63.154 390.117 61.8586Q393.067 60.5633 396.04 59.3217Q399.013 58.0801 402.008 56.8928Q405.003 55.7054 408.019 54.5726Q411.035 53.4399 414.072 52.362Q417.108 51.2842 420.163 50.2617Q423.219 49.2392 426.292 48.2724Q429.366 47.3055 432.456 46.3947Q435.547 45.4838 438.653 44.6292C493.598 29.8184 553.247 29.8361 608.749 41.5752C629.667 45.9995 650.668 52.081 669.279 62.7975C689.35 58.8475 707.536 62.1614 725.818 71.2717C759.726 88.168 785.82 116.241 804.186 149.022C807.139 154.293 810.04 159.635 812.67 165.075C815.04 169.978 817.106 175.378 820.137 179.906C822.132 182.886 824.921 185.578 827.286 188.285C831.061 192.605 834.801 197.2 838.06 201.915C858.337 231.252 872.875 264.406 884.088 298.118C902.006 299.465 918.261 297.504 932.314 285.322C939.09 279.449 943.219 272.472 945.171 263.729C947.019 274.452 949.262 284.864 949.348 295.818C949.636 332.744 931.31 369.435 910.403 399.019C903.095 409.361 894.757 420.295 885.951 429.338C880.496 435.054 872.263 442.362 867.81 448.465C888.671 511.662 890.134 577.876 879.161 643.136C875.045 634.187 871.013 624.97 865.043 617.071C843.213 588.194 795.241 567.843 759.666 562.754L759.527 563.173C756.631 567.986 753.599 572.605 749.811 576.774C737.336 590.505 706.841 613.963 690.942 623.881C683.899 628.275 676.035 631.575 669.153 636.088C666.962 633.953 664.701 631.864 662.673 629.572C652.328 618.089 643.877 605.433 635.679 592.378L633.951 590.034Q627.134 585.104 620.607 579.796C613.095 573.248 606.879 563.154 604.332 553.534C603.343 549.802 602.964 545.937 602.14 542.161C593.333 550.789 584.512 559.11 577.637 569.448Q551.141 577.501 524.769 585.957C516.555 588.637 508.083 591.128 500.109 594.45C492.406 585.947 485.416 576.811 477.746 568.279C466.836 556.141 454.724 544.97 442.242 534.474C441.929 545.488 421.828 577.698 414.051 585.281C413.907 585.421 413.751 585.55 413.601 585.685L413.586 585.93C401.883 597.996 389.766 609.539 376.27 619.61C332.397 652.348 271.454 676.356 216.297 677.059C212.478 677.107 207.987 676.269 204.292 676.81C203.319 676.861 202.386 676.734 201.418 676.634C198.81 676.424 199.179 677.71 197.455 679.085C194.774 669.165 192.673 658.64 191.173 648.478C189.857 642.322 189.02 636.003 188.014 629.786C192.138 630.234 196.241 630.683 200.388 630.861C197.084 628.975 188.615 628.401 184.56 627.512C161.25 622.402 137.786 612.038 121.526 594.118L124.117 594.313C129.85 585.769 135.806 577.564 142.677 569.888C145.334 566.919 152.65 561.35 153.886 558.264C154.953 557.544 156.02 556.828 157.053 556.06L156.481 556.748L155.777 556.026C155.66 556.088 155.545 556.154 155.426 556.212C152.21 557.803 148.622 558.795 145.333 560.273C142.403 562.51 138.882 564.342 135.528 565.865C137.087 563.092 142.143 559.63 142.426 556.962L140.505 556.627C143.458 555.133 146.382 553.833 149.479 552.667C151.204 552.005 158.216 549.795 158.839 548.651C152.274 549.631 146.35 552.758 140.01 554.617C141.237 551.679 143.408 548.79 144.867 545.874C149.471 545.624 154.075 545.58 158.626 544.78L158.353 544.442C153.995 543.944 149.749 544.049 145.378 544.183C142.044 545.558 120.677 545.932 115.254 546.342C107.897 546.898 100.569 547.786 93.2096 548.353C88.1443 532.749 88.193 513.83 89.7281 497.539C90.3665 490.763 91.492 483.95 91.758 477.155L91.7765 476.571L92.117 473.998C94.3802 464.385 97.7709 455.204 101.235 445.977C104.259 436.781 109.693 428.339 115.484 420.658C121.504 413.063 128.562 406.432 135.492 399.686C143.044 394.357 150.429 388.935 158.577 384.515C165.669 380.668 175.279 377.014 181.529 372.325Z"/>
	<path fill="#05495D" d="M297.576 290.614C310.57 305.8 327.39 341.857 332.938 361.308C334.854 368.025 335.555 378.918 337.877 384.496C337.782 387.552 337.487 390.74 337.614 393.786C337.09 396.247 336.687 400.462 334.471 401.936C333.485 401.995 332.85 401.821 332.016 401.275C328.367 398.884 324.344 394.424 323.322 390.153C319.334 363.048 310.12 337.03 302.596 310.786C301.222 305.885 297.242 295.236 297.576 290.614Z"/>
	<path fill="#65D0D2" d="M433.259 362.813L438.224 366.127C441.179 384.268 444.854 400.961 452.736 417.709C450.934 434.162 438.086 450.982 425.585 461.102C419.881 465.719 413.421 469.712 406.887 473.038C405.489 466.725 401.801 460.217 398.604 454.641Q401.158 452.478 403.567 450.156C429.273 425.63 432.525 396.32 433.259 362.813Z"/>
	<path fill="#65D0D2" d="M827.797 275.67C840.048 290.825 869.6 302.296 888.542 304.352C905.07 306.145 920.438 302.796 933.399 292.184C937.946 288.46 941.427 284.43 943.724 278.979C945.139 299.004 943.357 317.274 936.279 336.181C917.838 339.104 901.884 340.057 883.288 336.15C856.644 330.553 837.009 318.749 822.027 295.905C824.812 289.636 826.1 282.305 827.797 275.67Z"/>
	<path fill="#05495D" d="M783.303 362.581C791.576 377.715 802.51 392.573 813.202 406.08C816.197 409.864 822.066 415.058 824.306 418.733C825.8 423.8 848.317 448.935 853.197 454.021C840.924 464.473 826.124 472.996 811.987 480.7C801.68 486.003 790.196 492.483 778.913 495.376C775.105 487.013 770.848 478.859 766.743 470.639C763.955 465.058 761.375 459.059 757.963 453.849C760.492 464.127 766.657 489.648 771.626 498.242C755.56 504.925 738.75 508.415 721.912 512.358C719.727 498.903 717.245 485.481 715.355 471.98C713.72 460.31 712.664 448.429 710.575 436.841C714.166 431.839 718.105 427.208 721.265 421.883C730.642 406.081 735.068 386.192 738.919 368.362C741.361 372.701 744.507 376.564 749.494 378.008C753.592 379.195 757.824 378.231 761.805 377.047C770.019 374.218 777.065 368.448 783.303 362.581Z"/>
	<path fill="#2098A6" d="M783.303 362.581C791.576 377.715 802.51 392.573 813.202 406.08C816.197 409.864 822.066 415.058 824.306 418.733C825.8 423.8 848.317 448.935 853.197 454.021C840.924 464.473 826.124 472.996 811.987 480.7C791.929 459.933 775.683 430.479 767.544 402.899C765.052 394.455 763.496 385.681 761.805 377.047C770.019 374.218 777.065 368.448 783.303 362.581Z"/>
	<path fill="#2098A6" d="M247.919 351.493L248.965 349.761Q253.332 342.703 258.08 335.895Q262.828 329.087 267.943 322.55Q273.057 316.013 278.523 309.766Q283.988 303.519 289.788 297.582C291.662 295.636 295.08 291.22 297.576 290.614C297.242 295.236 301.222 305.885 302.596 310.786C310.12 337.03 319.334 363.048 323.322 390.153C324.344 394.424 328.367 398.884 332.016 401.275C332.85 401.821 333.485 401.995 334.471 401.936C336.687 400.462 337.09 396.247 337.614 393.786C339.569 396.283 340.464 400.79 340.47 403.975C332.693 407.539 326.5 413.796 317.812 415.255C307.925 416.915 297.267 415.136 287.411 413.843C255.67 409.681 216.859 402.517 203.127 440.147C195.811 460.198 199.996 476.203 207.37 495.234C201.304 491.988 195.966 492.196 189.502 494.128C184.92 495.498 180.368 497.501 176.214 499.866Q175.95 495.864 175.136 491.936C171.947 477.017 163.792 461.731 150.714 453.276C142.63 448.05 133.551 446.2 124.13 448.321C113.055 450.815 103.34 459.487 97.1538 468.725C95.5683 471.092 94.5312 473.738 93.0087 476.151L92.4351 475.975L92.117 473.998C94.3802 464.385 97.7709 455.204 101.235 445.977C105.829 438.43 109.982 430.619 115.554 423.714C139.24 394.366 176.773 377.363 211.708 365.497Q224.15 361.283 236.771 357.637C239.505 356.838 243.327 356.463 245.788 355.231C247.229 354.51 247.521 352.906 247.919 351.493Z"/>
	<path fill="#F36337" d="M263.098 371.481C268.989 352.686 286.899 322.391 302.596 310.786C310.12 337.03 319.334 363.048 323.322 390.153C319.027 388.877 314.837 386.086 310.554 384.482C295.038 378.668 279.494 373.972 263.098 371.481Z"/>
	<path fill="#F36337" d="M710.575 436.841C712.664 448.429 713.72 460.31 715.355 471.98C717.245 485.481 719.727 498.903 721.912 512.358C722.078 514.839 722.537 517.193 723.41 519.528L724.083 519.56C731.49 521.986 738.264 525.046 744.404 529.911C753.352 537.155 759.017 548.47 759.856 560.002C759.924 560.948 759.805 561.821 759.666 562.754L759.527 563.173C756.631 567.986 753.599 572.605 749.811 576.774C737.336 590.505 706.841 613.963 690.942 623.881C683.899 628.275 676.035 631.575 669.153 636.088C666.962 633.953 664.701 631.864 662.673 629.572C652.328 618.089 643.877 605.433 635.679 592.378L633.951 590.034Q627.134 585.104 620.607 579.796C613.095 573.248 606.879 563.154 604.332 553.534C603.343 549.802 602.964 545.937 602.14 542.161C608.627 536.292 615.28 530.963 622.557 526.097C622.615 524.833 622.387 523.814 622.122 522.588C622.939 517.075 621.326 505.668 620.964 499.607C650.929 487.288 671.048 473.698 695.97 453.108C696.836 451.198 708.211 439.598 710.575 436.841Z"/>
	<path fill="#2098A6" d="M723.41 519.528L724.083 519.56C731.49 521.986 738.264 525.046 744.404 529.911C744.79 535.808 742.871 540.309 738.968 544.717C736.281 547.752 732.966 550.267 729.735 552.692C727.567 542.513 723.634 529.751 723.41 519.528Z"/>
	<path fill="#05495D" d="M622.557 526.097Q623.074 532.153 623.504 538.215C624.089 552.452 624.318 565.873 620.607 579.796C613.095 573.248 606.879 563.154 604.332 553.534C603.343 549.802 602.964 545.937 602.14 542.161C608.627 536.292 615.28 530.963 622.557 526.097Z"/>
	<path fill="#65D0D2" d="M744.404 529.911C753.352 537.155 759.017 548.47 759.856 560.002C759.924 560.948 759.805 561.821 759.666 562.754L759.527 563.173C756.631 567.986 753.599 572.605 749.811 576.774C737.336 590.505 706.841 613.963 690.942 623.881C683.899 628.275 676.035 631.575 669.153 636.088C666.962 633.953 664.701 631.864 662.673 629.572C652.328 618.089 643.877 605.433 635.679 592.378L633.951 590.034C642.398 587.129 651.381 585.321 659.987 582.879C684.112 576.034 709.168 567.394 729.735 552.692C732.966 550.267 736.281 547.752 738.968 544.717C742.871 540.309 744.79 535.808 744.404 529.911Z"/>
	<path fill="#65D0D2" d="M337.877 384.496C342.675 389.164 358.395 402.91 361.076 407.533C364.202 410.264 366.94 413.387 369.733 416.449C380.134 427.97 391.332 440.83 398.604 454.641C401.801 460.217 405.489 466.725 406.887 473.038C407.973 478.841 409.202 484.636 409.76 490.514C409.764 490.557 409.779 490.599 409.788 490.641C410.105 495.352 409.582 499.855 408.731 504.484C408.675 504.886 408.503 505.622 408.551 506.013L411.059 507.851C419.298 514.89 427.85 521.603 435.926 528.824L442.242 534.474C441.929 545.488 421.828 577.698 414.051 585.281C413.907 585.421 413.751 585.55 413.601 585.685L413.586 585.93C401.883 597.996 389.766 609.539 376.27 619.61C332.397 652.348 271.454 676.356 216.297 677.059C212.478 677.107 207.987 676.269 204.292 676.81C203.319 676.861 202.386 676.734 201.418 676.634C198.81 676.424 199.179 677.71 197.455 679.085C194.774 669.165 192.673 658.64 191.173 648.478C189.857 642.322 189.02 636.003 188.014 629.786C192.138 630.234 196.241 630.683 200.388 630.861C197.084 628.975 188.615 628.401 184.56 627.512C161.25 622.402 137.786 612.038 121.526 594.118L124.117 594.313C129.85 585.769 135.806 577.564 142.677 569.888C145.334 566.919 152.65 561.35 153.886 558.264C154.953 557.544 156.02 556.828 157.053 556.06L156.481 556.748L155.777 556.026C155.66 556.088 155.545 556.154 155.426 556.212C152.21 557.803 148.622 558.795 145.333 560.273C142.403 562.51 138.882 564.342 135.528 565.865C137.087 563.092 142.143 559.63 142.426 556.962L140.505 556.627C143.458 555.133 146.382 553.833 149.479 552.667C151.204 552.005 158.216 549.795 158.839 548.651C152.274 549.631 146.35 552.758 140.01 554.617C141.237 551.679 143.408 548.79 144.867 545.874C149.471 545.624 154.075 545.58 158.626 544.78L158.353 544.442C153.995 543.944 149.749 544.049 145.378 544.183C142.044 545.558 120.677 545.932 115.254 546.342C107.897 546.898 100.569 547.786 93.2096 548.353C88.1443 532.749 88.193 513.83 89.7281 497.539C90.3665 490.763 91.492 483.95 91.758 477.155L91.7765 476.571L92.117 473.998L92.4351 475.975L93.0087 476.151C94.5312 473.738 95.5683 471.092 97.1538 468.725C103.34 459.487 113.055 450.815 124.13 448.321C133.551 446.2 142.63 448.05 150.714 453.276C163.792 461.731 171.947 477.017 175.136 491.936Q175.95 495.864 176.214 499.866C180.368 497.501 184.92 495.498 189.502 494.128C195.966 492.196 201.304 491.988 207.37 495.234C199.996 476.203 195.811 460.198 203.127 440.147C216.859 402.517 255.67 409.681 287.411 413.843C297.267 415.136 307.925 416.915 317.812 415.255C326.5 413.796 332.693 407.539 340.47 403.975C340.464 400.79 339.569 396.283 337.614 393.786C337.487 390.74 337.782 387.552 337.877 384.496Z"/>
	<path fill="#AFD8DF" d="M158.403 505.131C158.627 505.638 158.665 506.148 158.751 506.692C157.925 509.216 156.721 510.608 154.447 512.012C149.201 515.251 141.4 516.382 135.467 515.006C129.461 513.613 123.688 509.366 120.599 504.023C118.024 499.569 118.175 495.6 119.458 490.767C119.847 492.617 120.19 494.407 120.427 496.283Q120.552 497.21 120.768 498.12Q120.984 499.031 121.288 499.915Q121.591 500.8 121.98 501.651Q122.369 502.502 122.84 503.31Q123.311 504.119 123.858 504.878Q124.406 505.636 125.025 506.337Q125.644 507.039 126.329 507.676Q127.014 508.313 127.758 508.88C132.131 512.207 138.847 513.879 144.31 513.039C145.716 512.823 146.464 512.607 147.499 511.599C146.332 511.423 145.216 511.288 144.116 510.837L145.759 510.701C151.259 510.244 154.319 508.66 158.403 505.131Z"/>
	<path fill="#921C2D" d="M166.001 511.88C166.188 511.641 166.037 511.808 166.576 511.527L167.188 511.739C168.836 513.932 174.622 515.588 177.337 516.014C187.615 517.626 195.482 515.049 203.732 508.982C200.554 514.12 196.859 518.505 192.173 522.342L187.22 522.66C183.423 521.933 179.896 520.949 176.326 519.448C172.767 517.952 167.522 515.607 166.001 511.88Z"/>
	<path fill="#FBF6DF" d="M121.256 487.445C121.699 486.057 122.619 484.628 123.521 483.499C124.776 481.93 126.365 480.305 128.445 480.075C125.318 484.921 123.045 489.722 124.355 495.653C125.073 498.904 126.633 501.268 128.557 503.891C133.483 507.927 137.655 510.07 144.116 510.837C145.216 511.288 146.332 511.423 147.499 511.599C146.464 512.607 145.716 512.823 144.31 513.039C138.847 513.879 132.131 512.207 127.758 508.88Q127.014 508.313 126.329 507.676Q125.644 507.039 125.025 506.337Q124.406 505.636 123.858 504.878Q123.311 504.119 122.84 503.31Q122.369 502.502 121.98 501.651Q121.591 500.8 121.288 499.915Q120.984 499.031 120.768 498.12Q120.552 497.21 120.427 496.283C120.19 494.407 119.847 492.617 119.458 490.767C119.937 489.593 120.61 488.532 121.256 487.445Z"/>
	<path fill="#FBF6DF" d="M275.39 478.154L275.821 479.279C275.668 481.211 275.19 482.423 273.936 483.925C270.307 488.271 264.058 490.98 258.514 491.403C251.211 491.96 243.547 489.69 237.983 484.839C233.02 480.514 230.253 474.042 229.805 467.539C229.422 461.985 230.777 455.117 234.587 450.883C236.161 449.134 237.917 447.697 240.32 447.518C236.191 452.72 234.265 458.284 234.946 465.025Q235.005 465.615 235.094 466.201Q235.183 466.787 235.302 467.367Q235.421 467.948 235.569 468.522Q235.717 469.096 235.894 469.661Q236.071 470.227 236.277 470.783Q236.483 471.338 236.717 471.883Q236.951 472.427 237.212 472.959Q237.474 473.491 237.762 474.009Q238.05 474.527 238.364 475.03Q238.678 475.532 239.018 476.018Q239.357 476.504 239.721 476.972Q240.085 477.44 240.472 477.889Q240.859 478.338 241.268 478.766Q241.678 479.195 242.108 479.602Q242.539 480.009 242.99 480.393Q243.441 480.778 243.911 481.139Q244.345 481.481 244.795 481.801Q245.246 482.121 245.712 482.418Q246.177 482.715 246.658 482.988Q247.138 483.262 247.631 483.51Q248.125 483.759 248.63 483.983Q249.135 484.207 249.651 484.405Q250.167 484.603 250.692 484.775Q251.217 484.946 251.75 485.092Q252.283 485.237 252.823 485.355Q253.363 485.474 253.908 485.565Q254.453 485.656 255.002 485.719Q255.55 485.783 256.102 485.819Q256.653 485.855 257.206 485.863Q257.758 485.871 258.31 485.852Q258.862 485.832 259.413 485.785Q259.964 485.738 260.511 485.663C266.432 484.866 271.074 482.076 275.39 478.154Z"/>
	<path fill="#2098A6" d="M192.173 522.342C194.689 528.787 196.262 534.198 203.171 537.228C209.553 540.027 217.588 541.35 224.197 538.643C228.288 536.967 231.254 533.751 232.821 529.642C233.705 527.322 233.974 524.825 235.282 522.686L235.974 522.786C237.329 526.185 236.86 530.378 235.477 533.706C233.752 537.854 230.502 540.616 226.326 542.153C218.223 545.135 208.169 543.955 200.49 540.269Q198.629 539.38 196.865 538.312C194.708 544.529 191.714 549.055 185.614 552.104C181.277 554.272 174.712 555.462 170.05 553.717C168.512 553.141 167.287 552.201 166.631 550.647C166.306 549.879 166.277 549.346 166.34 548.544L167.096 548.162C168.151 548.683 169.089 549.205 170.076 549.84C172.511 551.408 175.257 551.441 178.01 550.761C183.378 549.436 189.344 545.381 192.076 540.476C192.755 539.258 193.257 537.977 193.698 536.658C191.938 531.884 188.514 527.503 187.22 522.66L192.173 522.342Z"/>
	<path fill="#F36337" d="M176.214 499.866C180.368 497.501 184.92 495.498 189.502 494.128C195.966 492.196 201.304 491.988 207.37 495.234C208.648 500.071 206.786 504.188 204.209 508.268C204.056 508.51 203.891 508.744 203.732 508.982C195.482 515.049 187.615 517.626 177.337 516.014C174.622 515.588 168.836 513.932 167.188 511.739L166.576 511.527C166.037 511.808 166.188 511.641 166.001 511.88L165.534 511.918C165.466 510.873 165.468 509.838 165.753 508.819C166.757 505.235 173.201 501.844 176.214 499.866Z"/>
	<path fill="#3A5B7C" d="M337.877 384.496C342.675 389.164 358.395 402.91 361.076 407.533C364.202 410.264 366.94 413.387 369.733 416.449L369.512 416.854C363.092 428.829 356.686 447.631 344.83 455.401C346.247 441.922 345.263 427.401 342.894 414.062L340.47 403.975C340.464 400.79 339.569 396.283 337.614 393.786C337.487 390.74 337.782 387.552 337.877 384.496Z"/>
	<path fill="#05495D" d="M128.445 480.075C131.974 476.621 136.272 475.256 141.197 475.238C146.894 475.217 152.488 477.328 156.503 481.425Q157.146 482.071 157.722 482.778Q158.298 483.485 158.799 484.246Q159.301 485.007 159.725 485.815Q160.148 486.623 160.488 487.469Q160.828 488.314 161.082 489.19Q161.336 490.066 161.502 490.962Q161.667 491.859 161.741 492.768Q161.816 493.676 161.799 494.588C161.743 498.188 160.642 502.264 158.403 505.131C154.319 508.66 151.259 510.244 145.759 510.701L144.116 510.837C137.655 510.07 133.483 507.927 128.557 503.891C126.633 501.268 125.073 498.904 124.355 495.653C123.045 489.722 125.318 484.921 128.445 480.075Z"/>
	<path fill="#FBF6DF" d="M129.839 481.063Q131.022 480.959 132.208 480.919C133.876 480.877 135.51 481.427 136.627 482.725C137.632 483.892 138.135 485.115 137.917 486.667C137.563 489.189 136.108 490.468 134.123 491.867C133.808 491.929 133.494 491.995 133.178 492.053C131.47 492.364 129.75 492.288 128.345 491.115C127.092 490.068 126.477 488.628 126.55 487.018C126.668 484.403 127.982 482.756 129.839 481.063Z"/>
	<path fill="#2098A6" d="M337.353 489.235C334.035 490.414 330.502 491.142 327.123 492.173Q314.327 496.108 301.642 500.388C290.211 504.35 278.98 509.639 267.401 513.042C265.09 513.721 262.306 514.279 259.927 513.795L259.666 513.165C261.217 511.892 263.225 511.111 264.9 509.932C274.37 503.27 284.22 497.16 293.896 490.801C304.039 484.136 314.292 477.615 324.224 470.637C331.112 465.797 337.729 460.53 344.639 455.749C343.945 462.767 342.891 469.766 341.025 476.576C339.937 480.548 337.807 485.256 337.353 489.235Z"/>
	<path fill="#05495D" d="M240.32 447.518C247.403 442.948 253.039 440.337 261.707 442.223C268.044 443.602 273.87 447.3 277.383 452.807C280.464 457.636 281.717 463.487 280.254 469.075C279.329 472.608 277.575 475.309 275.39 478.154C271.074 482.076 266.432 484.866 260.511 485.663Q259.964 485.738 259.413 485.785Q258.862 485.832 258.31 485.852Q257.758 485.871 257.206 485.863Q256.653 485.855 256.102 485.819Q255.55 485.783 255.002 485.719Q254.453 485.656 253.908 485.565Q253.363 485.474 252.823 485.355Q252.283 485.237 251.75 485.092Q251.217 484.946 250.692 484.775Q250.167 484.603 249.651 484.405Q249.135 484.207 248.63 483.983Q248.125 483.759 247.631 483.51Q247.138 483.262 246.658 482.989Q246.177 482.715 245.712 482.418Q245.246 482.121 244.795 481.801Q244.345 481.481 243.911 481.139Q243.441 480.778 242.99 480.393Q242.539 480.009 242.108 479.602Q241.678 479.195 241.268 478.766Q240.859 478.338 240.472 477.889Q240.085 477.44 239.721 476.972Q239.357 476.504 239.018 476.018Q238.678 475.532 238.364 475.03Q238.05 474.527 237.762 474.009Q237.474 473.491 237.212 472.959Q236.951 472.427 236.717 471.883Q236.483 471.338 236.277 470.783Q236.071 470.227 235.894 469.661Q235.717 469.096 235.569 468.522Q235.421 467.948 235.302 467.367Q235.183 466.787 235.094 466.201Q235.005 465.615 234.946 465.025C234.265 458.284 236.191 452.72 240.32 447.518Z"/>
	<path fill="#FBF6DF" d="M240.449 450.461C241.229 450.477 242.013 450.476 242.79 450.564C244.553 450.763 246.261 451.757 247.335 453.172C248.349 454.51 248.737 456.13 248.424 457.78C247.942 460.328 246.561 461.556 244.506 462.97C243.43 463.01 242.304 463.085 241.233 462.957C239.878 462.795 238.485 461.749 237.649 460.699C236.576 459.35 236.258 457.642 236.529 455.963C236.948 453.358 238.454 452.012 240.449 450.461Z"/>
	<path fill="#3A5B7C" d="M311.147 535.961L311.929 536.167C317.108 537.507 322.514 537.996 327.7 539.352C344.47 543.739 361.796 551.826 376.573 560.756L375.411 562.014C367.945 569.418 360.648 576.889 352.29 583.313C315.902 611.278 261.104 631.57 215.022 631.3Q207.702 631.187 200.388 630.861C197.084 628.975 188.615 628.401 184.56 627.512C161.25 622.402 137.786 612.038 121.526 594.118L124.117 594.313C151.58 605.112 178.523 610.216 208.029 606.562C253.609 600.918 284.012 570.583 310.795 536.3L311.147 535.961Z"/>
	<path fill="#05495D" d="M369.733 416.449C380.134 427.97 391.332 440.83 398.604 454.641C401.801 460.217 405.489 466.725 406.887 473.038C407.973 478.841 409.202 484.636 409.76 490.514C409.764 490.557 409.779 490.599 409.788 490.641C410.105 495.352 409.582 499.855 408.731 504.484C408.675 504.886 408.503 505.622 408.551 506.013C404.236 525.403 390.701 546.909 376.573 560.756C361.796 551.826 344.47 543.739 327.7 539.352C322.514 537.996 317.108 537.507 311.929 536.167L311.147 535.961L310.795 536.3C300.173 534.126 289.935 530.174 279.506 527.249C274.693 525.899 266.412 525.174 262.29 522.871L262.39 522.158C261.347 522.124 260.853 522.06 259.974 521.485L260.125 520.717L261.455 519.937C261.219 519.428 261.044 518.896 260.852 518.369L261.444 517.254C264.376 515.019 270.357 514.035 273.942 512.719C289.039 507.18 303.93 501.467 319.235 496.492C324.773 494.692 331.08 492.201 336.872 491.591C341.15 489.478 346.545 488.293 351.121 486.834C363.786 482.794 376.92 479.287 389.278 474.421C384.444 474.31 345.845 486.785 337.353 489.235C337.807 485.256 339.937 480.548 341.025 476.576C342.891 469.766 343.945 462.767 344.639 455.749L344.83 455.401C356.686 447.631 363.092 428.829 369.512 416.854L369.733 416.449Z"/>
	<path fill="#FBF6DF" d="M327.158 512.502C331.073 512.222 357.986 509.861 359.876 510.947C349.5 513.219 336.312 512.483 325.376 514.311Q309.745 515.674 294.194 517.764C283.597 519.222 273.034 521.084 262.39 522.158C261.347 522.124 260.853 522.06 259.974 521.485L260.125 520.717L261.455 519.937C270.438 520.072 281.009 517.746 290.004 516.543Q308.543 514.175 327.158 512.502Z"/>
	<path fill="#2098A6" d="M262.39 522.158C273.034 521.084 283.597 519.222 294.194 517.764Q309.745 515.674 325.376 514.311C320.899 521.708 316.502 529.151 311.147 535.961L310.795 536.3C300.173 534.126 289.935 530.174 279.506 527.249C274.693 525.899 266.412 525.174 262.29 522.871L262.39 522.158Z"/>
	<path fill="#2098A6" d="M261.455 519.937C261.219 519.428 261.044 518.896 260.852 518.369L261.444 517.254C264.376 515.019 270.357 514.035 273.942 512.719C289.039 507.18 303.93 501.467 319.235 496.492C324.773 494.692 331.08 492.201 336.872 491.591C334.706 495.972 327.539 508.48 327.158 512.502Q308.543 514.175 290.004 516.543C281.009 517.746 270.438 520.072 261.455 519.937Z"/>
	<path fill="#921C2D" d="M408.551 506.013L411.059 507.851C419.298 514.89 427.85 521.603 435.926 528.824L442.242 534.474C441.929 545.488 421.828 577.698 414.051 585.281C413.907 585.421 413.751 585.55 413.601 585.685L413.586 585.93C401.883 597.996 389.766 609.539 376.27 619.61C332.397 652.348 271.454 676.356 216.297 677.059C212.478 677.107 207.987 676.269 204.292 676.81C203.319 676.861 202.386 676.734 201.418 676.634C198.81 676.424 199.179 677.71 197.455 679.085C194.774 669.165 192.673 658.64 191.173 648.478C189.857 642.322 189.02 636.003 188.014 629.786C192.138 630.234 196.241 630.683 200.388 630.861Q207.702 631.187 215.022 631.3C261.104 631.57 315.902 611.278 352.29 583.313C360.648 576.889 367.945 569.418 375.411 562.014L376.573 560.756C390.701 546.909 404.236 525.403 408.551 506.013Z"/>
	<path fill="#F36337" d="M400.671 578.25C404.976 580.733 409.256 583.274 413.601 585.685L413.586 585.93C401.883 597.996 389.766 609.539 376.27 619.61C332.397 652.348 271.454 676.356 216.297 677.059C212.478 677.107 207.987 676.269 204.292 676.81C203.319 676.861 202.386 676.734 201.418 676.634C198.81 676.424 199.179 677.71 197.455 679.085C194.774 669.165 192.673 658.64 191.173 648.478C199.846 652.155 212.187 652.313 221.632 652.491C287.221 653.727 353.579 623.114 400.265 578.094L400.671 578.25Z"/>
	<path fill="#65D0D2" d="M424.947 354.844C412.73 345.785 403.173 325.606 398.527 311.493C382.997 264.326 384.043 209.748 406.65 164.999C432.066 114.691 478.024 81.8862 530.832 64.637C563.387 54.0029 600.952 50.5461 634.662 57.1718C639.876 58.1967 645.034 59.3921 650.094 61.0298C654.39 62.4203 658.891 64.3722 663.336 65.1167C668.045 65.9055 673.03 65.1425 677.798 65.5113Q680.796 65.7261 683.78 66.0888Q686.764 66.4515 689.727 66.9611Q692.689 67.4708 695.623 68.1262Q698.556 68.7816 701.454 69.5811Q704.352 70.3807 707.206 71.3224Q710.061 72.2641 712.866 73.3457Q715.67 74.4274 718.418 75.6462Q721.166 76.8651 723.85 78.2182C767.938 100.846 804.709 148.019 819.737 194.743C826.003 217.752 832.789 246.711 828.398 270.45C828.156 272.164 827.785 273.94 827.797 275.67C826.1 282.305 824.812 289.636 822.027 295.905C837.009 318.749 856.644 330.553 883.288 336.15C901.884 340.057 917.838 339.104 936.279 336.181C930.523 352.71 923.527 367.894 914.16 382.705C912.855 384.769 911.258 387.981 909.533 389.655Q904.98 396.241 900.291 402.73L897.394 407.099C890.62 415.942 883.679 424.629 875.91 432.628C870.75 437.988 865.62 443.782 859.766 448.393C846.763 439.084 835.723 429.99 824.306 418.733C822.066 415.058 816.197 409.864 813.202 406.08C802.51 392.573 791.576 377.715 783.303 362.581C784.834 360.97 786.186 359.149 787.583 357.42C794.246 348.311 798.353 338.2 801.329 327.383L801.262 325.685C802.116 322.655 802.039 319.499 802.1 316.377C804.557 304.687 798.766 289.414 792.528 279.755C787.867 272.539 781.466 266.98 772.794 265.349C765.271 263.934 758.112 266.619 752.086 270.979C742.795 277.701 735.548 288.377 733.71 299.76C727.162 286.777 722.167 273.163 721.323 258.547C721.387 257.539 721.484 256.499 721.442 255.49C721.344 253.137 720.7 252.997 718.709 252.04C700.63 243.351 685.956 232.766 671.701 218.6C667.664 212.841 662.305 207.87 658.175 202.106C647.153 186.727 641.839 173.002 634.331 155.891Q631.977 149.295 629.879 142.614C624.516 151.053 619.231 159.539 613.127 167.471C589.69 197.928 557.967 221.346 524.025 239.007Q513.033 244.679 501.758 249.765C495.635 252.525 489.1 255.008 483.459 258.678C476.897 253.139 470.269 250.204 461.808 248.853C452.171 251.414 440.718 262.605 433.921 269.788C428.997 274.936 424.758 280.642 421.658 287.072C422.982 294.408 424.048 302.468 427.348 309.222L429.236 312.848C428.391 314.987 428.944 316.335 429.179 318.516C429.705 326.152 431.811 334.093 433.334 341.595C435.29 349.703 436.38 357.996 438.224 366.127L433.259 362.813C431.003 359.981 427.555 357.469 424.947 354.844Z"/>
	<path fill="#2098A6" d="M520.373 197.701C529.625 194.048 538.403 189.434 547.076 184.586C557.876 178.548 568.618 172.029 578.475 164.529C610.907 139.852 638.972 104.458 650.178 64.9318C649.179 79.1386 646.423 91.8003 640.851 104.982C638.405 110.77 635.631 116.284 632.504 121.735C631.572 123.358 628.375 127.825 628.259 129.529C628.229 129.962 628.447 130.376 628.542 130.8C643.948 174.477 665.643 211.496 709.119 232.227C732.663 243.453 757.534 246.601 782.372 237.702C786.967 236.056 791.421 234.152 795.608 231.635C770.304 238.794 742.334 234.02 719.535 221.282C698.163 209.341 679.794 189.649 666.23 169.48C663.785 165.843 660.493 161.59 659.071 157.499C659.805 157.885 673.593 174.616 675.904 177.083C685.086 186.884 695.336 194.727 706.863 201.579C731.985 216.512 755.226 221.874 783.74 213.073C796.434 209.155 809.247 202.951 819.737 194.743C826.003 217.752 832.789 246.711 828.398 270.45C828.156 272.164 827.785 273.94 827.797 275.67C826.1 282.305 824.812 289.636 822.027 295.905C837.009 318.749 856.644 330.553 883.288 336.15C901.884 340.057 917.838 339.104 936.279 336.181C930.523 352.71 923.527 367.894 914.16 382.705C912.855 384.769 911.258 387.981 909.533 389.655Q904.98 396.241 900.291 402.73L897.394 407.099C890.62 415.942 883.679 424.629 875.91 432.628C870.75 437.988 865.62 443.782 859.766 448.393C846.763 439.084 835.723 429.99 824.306 418.733C822.066 415.058 816.197 409.864 813.202 406.08C802.51 392.573 791.576 377.715 783.303 362.581C784.834 360.97 786.186 359.149 787.583 357.42C794.246 348.311 798.353 338.2 801.329 327.383L801.262 325.685C802.116 322.655 802.039 319.499 802.1 316.377C804.557 304.687 798.766 289.414 792.528 279.755C787.867 272.539 781.466 266.98 772.794 265.349C765.271 263.934 758.112 266.619 752.086 270.979C742.795 277.701 735.548 288.377 733.71 299.76C727.162 286.777 722.167 273.163 721.323 258.547C721.387 257.539 721.484 256.499 721.442 255.49C721.344 253.137 720.7 252.997 718.709 252.04C700.63 243.351 685.956 232.766 671.701 218.6C667.664 212.841 662.305 207.87 658.175 202.106C647.153 186.727 641.839 173.002 634.331 155.891Q631.977 149.295 629.879 142.614C624.516 151.053 619.231 159.539 613.127 167.471C589.69 197.928 557.967 221.346 524.025 239.007Q513.033 244.679 501.758 249.765C495.635 252.525 489.1 255.008 483.459 258.678C476.897 253.139 470.269 250.204 461.808 248.853C452.171 251.414 440.718 262.605 433.921 269.788C428.997 274.936 424.758 280.642 421.658 287.072C422.982 294.408 424.048 302.468 427.348 309.222L429.236 312.848C428.391 314.987 428.944 316.335 429.179 318.516C429.705 326.152 431.811 334.093 433.334 341.595C435.29 349.703 436.38 357.996 438.224 366.127L433.259 362.813C431.003 359.981 427.555 357.469 424.947 354.844C423.568 351.399 421.05 348.13 419.158 344.91C406.021 322.543 407.518 299.579 413.738 275.247C429.622 213.107 466.696 169.523 519.794 135.092C529.715 128.659 540.094 122.187 550.341 116.301C554.505 113.909 560.362 111.738 564.081 108.822C564.345 108.615 564.564 108.358 564.806 108.125L565.002 108.334L564.53 108.742L565.174 109.893L564.321 109.136C553.178 118.373 540.901 126.389 529.56 135.425C498.329 160.308 468.988 190.681 451.723 227.158C448.266 234.46 445.712 242.18 443.044 249.794C480.344 214.005 528.012 188.135 562.156 149.079C568.352 141.991 573.715 134.272 579.002 126.498C567.616 154.648 545.445 180.564 520.373 197.701Z"/>
	<path fill="#05495D" d="M421.658 287.072C422.982 294.408 424.048 302.468 427.348 309.222L429.236 312.848C428.391 314.987 428.944 316.335 429.179 318.516C429.705 326.152 431.811 334.093 433.334 341.595C432.676 341.458 432.366 341.449 431.788 341.14C426.802 338.48 420.527 327.458 418.582 322.117C414.398 310.634 416.596 297.88 421.658 287.072Z"/>
	<path fill="#05495D" d="M801.262 325.685C801.517 325.843 801.774 325.997 802.026 326.159C808.449 330.302 818.067 342.29 824.011 348.154C840.789 364.703 869.948 383.045 892.933 388.072C898.377 389.262 903.993 389.307 909.533 389.655Q904.98 396.241 900.291 402.73L897.394 407.099C895.425 406.881 893.559 406.615 891.712 405.865C882.999 402.327 854.133 384.066 848.634 377.639C847.844 376.024 834.335 365.989 831.791 363.8Q824.619 357.55 817.976 350.741C813.658 346.323 810.043 341.06 806.819 335.812C805.265 333.283 803.811 330.364 801.929 328.091C801.732 327.853 801.529 327.619 801.329 327.383L801.262 325.685Z"/>
	<path fill="#65D0D2" d="M848.634 377.639C856.702 382.524 864.674 387.438 873.271 391.359C882.163 395.414 891.466 398.544 900.291 402.73L897.394 407.099C895.425 406.881 893.559 406.615 891.712 405.865C882.999 402.327 854.133 384.066 848.634 377.639Z"/>
	<path fill="#F36337" d="M461.808 248.853C473.737 241.354 486.014 235.284 498.57 228.936C524.126 216.015 550.337 203.452 573.548 186.517C587.34 176.454 600.561 164.62 611.887 151.834Q616.096 147.161 619.894 142.148C621.573 139.902 624.958 133.148 627.161 132.135L627.916 133.031C628.368 136.28 629.449 139.395 629.879 142.614C624.516 151.053 619.231 159.539 613.127 167.471C589.69 197.928 557.967 221.346 524.025 239.007Q513.033 244.679 501.758 249.765C495.635 252.525 489.1 255.008 483.459 258.678C476.897 253.139 470.269 250.204 461.808 248.853Z"/>
	<path fill="#2098A6" d="M787.583 357.42C794.246 348.311 798.353 338.2 801.329 327.383C801.529 327.619 801.732 327.853 801.929 328.091C803.811 330.364 805.265 333.283 806.819 335.812C810.043 341.06 813.658 346.323 817.976 350.741Q824.619 357.55 831.791 363.8C834.335 365.989 847.844 376.024 848.634 377.639C854.133 384.066 882.999 402.327 891.712 405.865C893.559 406.615 895.425 406.881 897.394 407.099C890.62 415.942 883.679 424.629 875.91 432.628C870.75 437.988 865.62 443.782 859.766 448.393C846.763 439.084 835.723 429.99 824.306 418.733C822.066 415.058 816.197 409.864 813.202 406.08C802.51 392.573 791.576 377.715 783.303 362.581C784.834 360.97 786.186 359.149 787.583 357.42Z"/>
	<path fill="#05495D" d="M783.303 362.581C784.834 360.97 786.186 359.149 787.583 357.42C803.186 385.041 827.024 406.379 854.33 422.141C858.531 424.567 873.691 430.74 875.91 432.628C870.75 437.988 865.62 443.782 859.766 448.393C846.763 439.084 835.723 429.99 824.306 418.733C822.066 415.058 816.197 409.864 813.202 406.08C802.51 392.573 791.576 377.715 783.303 362.581Z"/>
	<path fill="#FCCF9D" d="M483.459 258.678C489.1 255.008 495.635 252.525 501.758 249.765Q513.033 244.679 524.025 239.007C557.967 221.346 589.69 197.928 613.127 167.471C619.231 159.539 624.516 151.053 629.879 142.614Q631.977 149.295 634.331 155.891C641.839 173.002 647.153 186.727 658.175 202.106C662.305 207.87 667.664 212.841 671.701 218.6C685.956 232.766 700.63 243.351 718.709 252.04C720.7 252.997 721.344 253.137 721.442 255.49C721.484 256.499 721.387 257.539 721.323 258.547C722.167 273.163 727.162 286.777 733.71 299.76C735.548 288.377 742.795 277.701 752.086 270.979C758.112 266.619 765.271 263.934 772.794 265.349C781.466 266.98 787.867 272.539 792.528 279.755C798.766 289.414 804.557 304.687 802.1 316.377C802.039 319.499 802.116 322.655 801.262 325.685L801.329 327.383C798.353 338.2 794.246 348.311 787.583 357.42C786.186 359.149 784.834 360.97 783.303 362.581C777.065 368.448 770.019 374.218 761.805 377.047C757.824 378.231 753.592 379.195 749.494 378.008C744.507 376.564 741.361 372.701 738.919 368.362C735.068 386.192 730.642 406.081 721.265 421.883C718.105 427.208 714.166 431.839 710.575 436.841C708.211 439.598 696.836 451.198 695.97 453.108C671.048 473.698 650.929 487.288 620.964 499.607C621.326 505.668 622.939 517.075 622.122 522.588C622.387 523.814 622.615 524.833 622.557 526.097C615.28 530.963 608.627 536.292 602.14 542.161C593.333 550.789 584.512 559.11 577.637 569.448Q551.141 577.501 524.769 585.957C516.555 588.637 508.083 591.128 500.109 594.45C492.406 585.947 485.416 576.811 477.746 568.279C466.836 556.141 454.724 544.97 442.242 534.474L435.926 528.824C427.85 521.603 419.298 514.89 411.059 507.851L408.551 506.013C408.503 505.622 408.675 504.886 408.731 504.484C409.582 499.855 410.105 495.352 409.788 490.641C409.779 490.599 409.764 490.557 409.76 490.514C409.202 484.636 407.973 478.841 406.887 473.038C413.421 469.712 419.881 465.719 425.585 461.102C438.086 450.982 450.934 434.162 452.736 417.709C444.854 400.961 441.179 384.268 438.224 366.127C436.38 357.996 435.29 349.703 433.334 341.595C431.811 334.093 429.705 326.152 429.179 318.516C428.944 316.335 428.391 314.987 429.236 312.848L427.348 309.222C424.048 302.468 422.982 294.408 421.658 287.072C424.758 280.642 428.997 274.936 433.921 269.788C440.718 262.605 452.171 251.414 461.808 248.853C470.269 250.204 476.897 253.139 483.459 258.678Z"/>
	<path fill="#F36337" d="M586.048 447.58L586.18 448.12C583.962 449.852 581.682 451.575 579.304 453.082C568.836 459.713 557.513 462.685 545.36 460.041C544.486 459.757 543.891 459.474 543.151 458.929C546.133 457.525 550.836 458.134 554.152 457.462Q562.345 455.764 570.338 453.288Q578.33 450.812 586.048 447.58Z"/>
	<path fill="#F36337" d="M499.135 259.921C501.438 262.23 516.587 326.459 518.539 334.649C512.193 328.681 500.163 271.452 499.135 259.921Z"/>
	<path fill="#F36337" d="M531.186 440.975C551.574 442.258 565.484 440.607 584.028 431.554C588.531 429.356 593.602 425.572 598.471 424.564C587.341 436.164 571.391 446.818 554.835 447.247C546.431 447.465 538.098 446.032 531.186 440.975Z"/>
	<path fill="#F36337" d="M634.331 155.891C641.839 173.002 647.153 186.727 658.175 202.106C662.305 207.87 667.664 212.841 671.701 218.6C685.956 232.766 700.63 243.351 718.709 252.04C720.7 252.997 721.344 253.137 721.442 255.49C721.484 256.499 721.387 257.539 721.323 258.547C707.37 257.191 678.856 231.12 669.898 220.527C667.055 217.928 664.42 214.51 662.022 211.481C654.81 202.372 633.025 166.755 634.331 155.891Z"/>
	<path fill="#170405" d="M435.696 320.11C438.168 317.267 440.702 314.474 443.492 311.936C451.418 304.726 461.196 299.525 472.168 300.129C479.214 300.518 493.793 304.954 498.465 310.149L496.54 311.153C489.533 308.433 481.766 306.064 474.207 306.366C464.26 306.778 456.377 310.185 449.581 317.536C447.58 319.699 445.568 324.144 443.386 325.592L442.138 325.841C441.755 326.252 441.373 326.666 440.973 327.059C440.368 327.654 439.406 328.587 438.503 328.463C434.892 327.967 431.085 321.299 429.179 318.516C428.944 316.335 428.391 314.987 429.236 312.848C431.236 315.486 433.245 317.882 435.696 320.11Z"/>
	<path fill="#FBAD74" d="M522.122 358.928C529.906 360.749 539.26 360.226 544.826 366.628C539.853 367.219 531.865 367.392 528.608 371.768C528.026 372.551 527.821 373.227 527.676 374.194C528.044 375.901 528.727 376.765 530.136 377.724C539.453 384.058 554.134 382.572 564.803 385.45C563.574 386.505 562.37 387.446 561.01 388.329C554.645 389.974 547.766 390.962 541.183 390.824C533.05 390.653 525.569 388.526 519.823 382.473C518.721 377.668 521.179 364.207 522.122 358.928Z"/>
	<path fill="#F36337" d="M519.823 382.473C525.569 388.526 533.05 390.653 541.183 390.824C547.766 390.962 554.645 389.974 561.01 388.329C562.37 387.446 563.574 386.505 564.803 385.45C567.01 386.027 569.282 386.387 571.086 387.852C571.588 389.059 571.811 389.284 571.188 390.542C568.9 395.161 552.778 402.93 547.362 404.065C540.872 405.425 533.185 403.918 527.681 400.127C523.953 397.56 521.091 393.344 520.438 388.822C520.419 388.691 520.413 388.558 520.401 388.426L519.823 382.473Z"/>
	<path fill="#921C2D" d="M519.823 382.473C525.569 388.526 533.05 390.653 541.183 390.824C547.766 390.962 554.645 389.974 561.01 388.329C560.613 388.732 560.222 389.142 559.794 389.512C554.589 394.026 542.679 396.01 535.94 395.582C529.581 395.178 524.659 393.114 520.401 388.426L519.823 382.473Z"/>
	<path fill="#170405" d="M583.658 322.593L583.192 322.835C583.122 322.462 583.032 322.054 583.004 321.67C582.193 310.753 589.884 294.154 596.929 285.891C607.978 272.934 624.44 270.586 640.302 274.424C646.628 275.954 653.845 278.95 660.388 278.268C666.275 277.654 670.233 274.255 673.887 269.935C672.062 274.006 669.633 277.705 666.275 280.692C661.795 284.678 657.018 286.206 651.086 285.816C644.51 282.811 628.358 278.288 621.388 280.34C609.021 282.96 599.802 288.585 592.915 299.294Q591.219 301.954 589.781 304.763Q588.344 307.572 587.179 310.504Q586.014 313.436 585.132 316.465Q584.25 319.494 583.658 322.593Z"/>
	<path fill="#F36337" d="M516.897 435.336C529.524 436.199 547.732 429.956 560.784 427.5C568.248 426.095 576.078 425.826 583.383 423.712C594.606 420.463 604.938 415.347 616.454 412.769C611.73 415.5 607.098 418.435 602.477 421.336C601.179 422.432 599.901 423.648 598.471 424.564C593.602 425.572 588.531 429.356 584.028 431.554C565.484 440.607 551.574 442.258 531.186 440.975L527.904 439.682C524.117 438.845 520.41 436.923 516.897 435.336Z"/>
	<path fill="#921C2D" d="M527.904 439.682C531.15 439.255 534.724 439.765 538.004 439.844C545.754 440.031 553.226 439.463 560.763 437.549C566.882 435.995 572.886 433.801 578.703 431.362C584.549 428.912 597.065 421.717 602.477 421.336C601.179 422.432 599.901 423.648 598.471 424.564C593.602 425.572 588.531 429.356 584.028 431.554C565.484 440.607 551.574 442.258 531.186 440.975L527.904 439.682Z"/>
	<path fill="#FBF6DF" d="M443.386 325.592C445.568 324.144 447.58 319.699 449.581 317.536C456.377 310.185 464.26 306.778 474.207 306.366C468.922 312.417 463.567 317.506 464.114 326.228Q464.156 326.813 464.228 327.394Q464.3 327.976 464.401 328.553Q464.503 329.131 464.633 329.702Q464.764 330.273 464.923 330.837Q465.083 331.401 465.271 331.956Q465.459 332.512 465.675 333.056Q465.891 333.601 466.135 334.134Q466.378 334.668 466.648 335.188Q466.919 335.708 467.215 336.213Q467.512 336.719 467.834 337.209Q468.155 337.698 468.502 338.171Q468.848 338.644 469.218 339.099Q469.588 339.553 469.981 339.988Q470.373 340.424 470.788 340.838Q471.202 341.253 471.637 341.646Q472.072 342.039 472.526 342.409C476.92 345.993 481.899 347.478 487.434 348.17C485.999 349.003 484.489 349.528 482.904 349.997C473.553 352.763 461.967 351.231 453.501 346.492C448.457 343.668 443.118 339.466 441.608 333.641C440.74 330.294 441.744 328.503 443.386 325.592Z"/>
	<path fill="#FBF6DF" d="M621.388 280.34C621.344 280.474 621.317 280.615 621.257 280.742C620.903 281.488 620.374 281.803 619.761 282.328C614.748 286.62 612.122 291.712 611.553 298.285Q611.507 298.81 611.487 299.336Q611.467 299.863 611.474 300.39Q611.481 300.917 611.514 301.443Q611.547 301.968 611.607 302.492Q611.667 303.016 611.752 303.535Q611.838 304.055 611.95 304.57Q612.062 305.085 612.2 305.594Q612.338 306.102 612.501 306.603Q612.664 307.104 612.852 307.596Q613.041 308.089 613.253 308.571Q613.466 309.053 613.703 309.523Q613.94 309.994 614.2 310.452Q614.46 310.911 614.743 311.355Q615.025 311.8 615.33 312.23Q615.635 312.659 615.961 313.073Q616.287 313.487 616.634 313.884C620.394 318.191 626.218 321.116 631.937 321.465C633.309 321.548 634.681 321.507 636.052 321.428C626.651 328.633 611.999 331.129 600.475 329.643C596.266 329.101 586.851 327.721 584.204 324.132C583.878 323.69 583.756 323.12 583.658 322.593Q584.25 319.494 585.132 316.465Q586.014 313.436 587.179 310.504Q588.344 307.572 589.781 304.763Q591.219 301.954 592.915 299.294C599.802 288.585 609.021 282.96 621.388 280.34Z"/>
	<path fill="#2098A6" d="M615.837 216.196C618.049 216.062 620.237 215.994 622.452 216.122C638.784 217.064 652.217 226.151 662.764 238.068C641.615 231.081 624.926 230.478 603.378 235.823C589.493 239.858 578.152 245.084 566.975 254.33C569.34 247.78 572.359 241.65 576.786 236.228C586.278 224.604 601.121 217.774 615.837 216.196Z"/>
	<path fill="#F36337" d="M433.921 269.788C440.718 262.605 452.171 251.414 461.808 248.853C470.269 250.204 476.897 253.139 483.459 258.678C485.504 260.333 487.552 261.962 489.448 263.79L489.46 264.413C488.418 264.374 487.588 264.26 486.588 263.96C481.992 264.632 477.445 265.078 472.925 266.221C458.805 269.793 445.761 278.661 437.023 290.266Q435.395 292.391 433.966 294.654Q432.538 296.918 431.321 299.303Q430.104 301.687 429.109 304.172Q428.113 306.657 427.348 309.222C424.048 302.468 422.982 294.408 421.658 287.072C424.758 280.642 428.997 274.936 433.921 269.788Z"/>
	<path fill="#05495D" d="M433.921 269.788C440.718 262.605 452.171 251.414 461.808 248.853C470.269 250.204 476.897 253.139 483.459 258.678C485.504 260.333 487.552 261.962 489.448 263.79L489.46 264.413C488.418 264.374 487.588 264.26 486.588 263.96C475.622 258.567 454.368 262.661 443.259 266.414Q438.569 268.044 433.921 269.788Z"/>
	<path fill="#3A5B7C" d="M621.388 280.34C628.358 278.288 644.51 282.811 651.086 285.816C653.723 289.869 653.831 293.922 652.877 298.572C650.877 308.322 644.917 315.613 636.721 320.996L636.052 321.428C634.681 321.507 633.309 321.548 631.937 321.465C626.218 321.116 620.394 318.191 616.634 313.884Q616.287 313.487 615.961 313.073Q615.635 312.659 615.33 312.23Q615.025 311.8 614.743 311.355Q614.46 310.911 614.2 310.452Q613.94 309.994 613.703 309.523Q613.466 309.053 613.253 308.571Q613.041 308.089 612.852 307.596Q612.664 307.104 612.501 306.603Q612.338 306.102 612.2 305.594Q612.062 305.085 611.95 304.57Q611.838 304.055 611.752 303.535Q611.667 303.016 611.607 302.492Q611.547 301.968 611.514 301.443Q611.481 300.917 611.474 300.39Q611.467 299.863 611.487 299.336Q611.507 298.81 611.553 298.285C612.122 291.712 614.748 286.62 619.761 282.328C620.374 281.803 620.903 281.488 621.257 280.742C621.317 280.615 621.344 280.474 621.388 280.34Z"/>
	<path fill="#FBF6DF" d="M642.561 285.658C644.291 285.766 646.662 285.672 648.115 286.776C649.193 287.595 649.128 288.027 649.142 289.247C647.615 291.827 645.381 292.122 642.707 292.818C640.766 293.035 639.033 292.868 637.301 291.959C636.487 290.815 636.523 290.824 636.636 289.418C638.175 286.928 639.795 286.39 642.561 285.658Z"/>
	<path fill="#3A5B7C" d="M474.207 306.366C481.766 306.064 489.533 308.433 496.54 311.153L498.465 310.149L499.002 309.579C501.259 310.289 503.604 314.231 504.675 316.243C507.251 321.083 509.365 327.876 507.838 333.278C507.052 336.058 504.469 338.539 501.849 339.669C501.387 339.868 501.199 339.851 500.752 339.878C497.945 342.436 494.938 344.92 491.498 346.586C490.202 347.214 488.658 347.459 487.434 348.17C481.899 347.478 476.92 345.993 472.526 342.409Q472.072 342.039 471.637 341.646Q471.202 341.253 470.788 340.838Q470.373 340.424 469.981 339.988Q469.588 339.553 469.218 339.099Q468.848 338.644 468.502 338.171Q468.155 337.698 467.834 337.209Q467.512 336.719 467.215 336.213Q466.919 335.708 466.648 335.188Q466.378 334.667 466.135 334.134Q465.891 333.601 465.675 333.056Q465.459 332.512 465.271 331.956Q465.083 331.401 464.923 330.837Q464.764 330.273 464.633 329.702Q464.503 329.131 464.401 328.553Q464.3 327.976 464.228 327.394Q464.156 326.813 464.114 326.228C463.567 317.506 468.922 312.417 474.207 306.366Z"/>
	<path fill="#FBF6DF" d="M470.609 314.961C473.072 315.053 476.655 315.21 478.706 316.684C479.44 317.213 479.274 317.417 479.396 318.23C478.602 319.824 477.226 320.441 475.755 321.31C474.9 321.532 474.041 321.765 473.165 321.893C471.579 322.125 469.272 321.512 468.108 320.356C467.068 319.324 467.121 318.963 467.153 317.609C468.007 316.084 469.106 315.677 470.609 314.961Z"/>
	<path fill="#FBF6DF" d="M498.465 310.149L499.002 309.579C501.259 310.289 503.604 314.231 504.675 316.243C507.251 321.083 509.365 327.876 507.838 333.278C507.052 336.058 504.469 338.539 501.849 339.669C501.387 339.868 501.199 339.851 500.752 339.878C504.201 335.083 505.477 329.436 505.646 323.6C505.696 321.901 505.626 320.57 504.422 319.256C503.194 319.686 501.856 320.204 500.57 320.41C498.746 320.701 496.96 319.954 495.603 318.773C494.455 317.772 493.149 315.496 493.128 313.976C494.036 312.539 495.114 311.974 496.54 311.153L498.465 310.149Z"/>
	<path fill="#FBAD74" d="M481.664 371.709C487.058 371.607 492.745 372.492 497.543 375.049C504.079 378.532 510.049 385.854 511.953 393.03C513.722 399.698 512.318 407.66 508.834 413.557C504.333 421.176 497.599 424.476 489.385 426.624C482.092 427.491 475.172 426.445 469.182 421.874C462.918 417.095 458.716 409.022 457.749 401.248Q457.664 400.566 457.613 399.881Q457.562 399.196 457.547 398.509Q457.531 397.822 457.551 397.135Q457.57 396.448 457.625 395.763Q457.679 395.079 457.769 394.397Q457.858 393.716 457.982 393.04Q458.106 392.364 458.264 391.696Q458.423 391.027 458.615 390.368Q458.807 389.708 459.033 389.059Q459.258 388.41 459.517 387.773Q459.775 387.137 460.066 386.514Q460.356 385.891 460.678 385.284Q461 384.677 461.353 384.088Q461.705 383.498 462.087 382.927Q462.469 382.356 462.88 381.805Q463.291 381.254 463.729 380.725C468.491 374.88 474.354 372.441 481.664 371.709Z"/>
	<path fill="#FBAD74" d="M652.165 341.664C659.161 341.153 665.835 342.78 671.492 347.062C678.271 352.192 684.047 360.861 685.027 369.406C685.963 377.559 682.748 386.501 677.578 392.773C671.329 400.353 662.183 403.908 652.626 404.782C645.397 405.091 638.156 402.531 632.344 398.32C625.952 393.688 620.786 386.559 619.672 378.614C618.57 370.755 622.528 362.845 627.14 356.731C633.642 348.11 641.476 343.196 652.165 341.664Z"/>
	<path fill="#F36337" d="M740.838 351.422C741.74 341.211 743.312 331.045 744.77 320.902C745.603 315.105 745.994 308.606 747.899 303.054C749.472 298.467 752.623 294.494 757.135 292.526C762.21 290.313 767.651 291.26 772.662 293.085C781.871 297.365 787.695 306.506 791.074 315.764C792.02 318.355 792.923 321.198 793.337 323.926C793.54 325.015 793.682 326.021 794.263 326.988C794.692 327.7 794.546 327.469 795.464 327.656C798.631 325.726 799.68 320.261 801.577 317.201C801.748 316.924 801.926 316.652 802.1 316.377C802.039 319.499 802.116 322.655 801.262 325.685L801.329 327.383C798.353 338.2 794.246 348.311 787.583 357.42C786.186 359.149 784.834 360.97 783.303 362.581C777.065 368.448 770.019 374.218 761.805 377.047C757.824 378.231 753.592 379.195 749.494 378.008C744.507 376.564 741.361 372.701 738.919 368.362C739.123 365.668 739.117 362.737 739.811 360.127C740.077 357.228 740.221 354.269 740.838 351.422Z"/>
	<path fill="#FBF6DF" d="M452.736 417.709C454.869 422.252 457.353 426.512 459.913 430.818L464.151 437.538C465.596 439.54 467.641 441.843 468.717 444.031C487.93 467.592 507.844 484.591 535.344 497.76C539.935 499.959 545.218 503.297 550.221 504.169C552.366 505.026 555.713 505.675 557.42 507.11C560.998 508.03 564.6 509.383 568.268 509.847C585.325 512.001 605.005 505.364 620.964 499.607C621.326 505.668 622.939 517.075 622.122 522.588C622.387 523.814 622.615 524.833 622.557 526.097C615.28 530.963 608.627 536.292 602.14 542.161C593.333 550.789 584.512 559.11 577.637 569.448Q551.141 577.501 524.769 585.957C516.555 588.637 508.083 591.128 500.109 594.45C492.406 585.947 485.416 576.811 477.746 568.279C466.836 556.141 454.724 544.97 442.242 534.474L435.926 528.824C427.85 521.603 419.298 514.89 411.059 507.851L408.551 506.013C408.503 505.622 408.675 504.886 408.731 504.484C409.582 499.855 410.105 495.352 409.788 490.641C409.779 490.599 409.764 490.557 409.76 490.514C409.202 484.636 407.973 478.841 406.887 473.038C413.421 469.712 419.881 465.719 425.585 461.102C438.086 450.982 450.934 434.162 452.736 417.709Z"/>
	<path fill="#05495D" d="M620.964 499.607C621.326 505.668 622.939 517.075 622.122 522.588C604.777 526.616 587.8 529.579 570.061 531.211C567.925 531.408 562.057 532.515 560.409 531.33C560.351 531.288 560.32 531.216 560.276 531.159L557.42 507.11C560.998 508.03 564.6 509.383 568.268 509.847C585.325 512.001 605.005 505.364 620.964 499.607Z"/>
	<path fill="#05495D" d="M468.717 444.031C487.93 467.592 507.844 484.591 535.344 497.76C539.935 499.959 545.218 503.297 550.221 504.169C551.812 513.517 553.519 522.87 554.859 532.257C538.387 533.476 519.801 532.979 503.365 531.229C496.504 530.498 489.732 529.05 482.864 528.402C487.457 515.671 492.22 501.796 492.932 488.199L491.953 487.421L492.049 487.286C488.913 491.104 486.359 500.969 484.374 506.081C481.887 501.985 481.134 488.485 479.835 483.125C477.974 475.444 475.795 467.754 473.47 460.203C471.819 454.842 469.817 449.539 468.717 444.031Z"/>
	<path fill="#2098A6" d="M452.736 417.709C454.869 422.252 457.353 426.512 459.913 430.818L464.151 437.538C465.596 439.54 467.641 441.843 468.717 444.031C469.817 449.539 471.819 454.842 473.47 460.203C475.795 467.754 477.974 475.444 479.835 483.125C481.134 488.485 481.887 501.985 484.374 506.081C481.928 513.012 479.006 519.832 476.8 526.834Q450.8 521.727 425.703 513.228L411.059 507.851L408.551 506.013C408.503 505.622 408.675 504.886 408.731 504.484C409.582 499.855 410.105 495.352 409.788 490.641C409.779 490.599 409.764 490.557 409.76 490.514C409.202 484.636 407.973 478.841 406.887 473.038C413.421 469.712 419.881 465.719 425.585 461.102C438.086 450.982 450.934 434.162 452.736 417.709Z"/>
	<path fill="#65D0D2" d="M409.788 490.641C409.896 489.869 410.071 489.099 410.217 488.333C413.806 485.53 417.847 483.236 421.639 480.708C432.492 473.473 440.535 465.514 447.354 454.366C449.496 450.866 457.163 432.99 459.093 432.137C456.851 456.873 441.876 478.331 423.199 493.918C418.868 497.532 413.746 501.927 408.731 504.484C409.582 499.855 410.105 495.352 409.788 490.641Z"/>
</svg>
